<?xml version="1.0" encoding="UTF-8"?><!DOCTYPE svg PUBLIC "-//W3C//DTD SVG 1.1//EN" "http://www.w3.org/Graphics/SVG/1.1/DTD/svg11.dtd"><svg xmlns="http://www.w3.org/2000/svg" xmlns:xlink="http://www.w3.org/1999/xlink"><defs>
        <clipPath id="a">
            <path d="M0 0h35v35H0z"/>
        </clipPath>
    
        <clipPath id="a">
            <path d="M0 0h25v25H0z"/>
        </clipPath>
    
        <clipPath id="a">
            <path transform="translate(.4)" d="M0 0h25v25H0z"/>
        </clipPath>
    
        <clipPath id="a">
            <path d="M0 0h25v25H0z"/>
        </clipPath>
    
        <clipPath id="a">
            <path d="M0 0h25v25H0z"/>
        </clipPath>
    
        <clipPath id="a">
            <path d="M0 0h35v35H0z"/>
        </clipPath>
    
        <clipPath id="a">
            <path d="M0 0h35v35H0z"/>
        </clipPath>
    
        <clipPath id="a">
            <path d="M0 0h36v36H0z"/>
        </clipPath>
    
        <clipPath id="a">
            <path d="M0 0h36v36H0z"/>
        </clipPath>
    
        <clipPath id="a">
            <path d="M0 0h25v25H0z"/>
        </clipPath>
    
        <clipPath id="a">
            <path d="M0 0h35v35H0z"/>
        </clipPath>
    </defs><symbol id="icon-aperitif" viewBox="0 0 25 25">
    <path d="M12.773 16.191a.41.41 0 1 0 0 .821.41.41 0 0 0 0-.82zm-1.39-.359a2.877 2.877 0 0 1-1.482-2.512.41.41 0 0 0-.82 0 3.7 3.7 0 0 0 1.904 3.23.41.41 0 1 0 .398-.718z"/>
    <path d="M19.355 2h-4.101a.41.41 0 0 0-.405.343l-.623 3.759h-.218a4.418 4.418 0 0 0-1.274-2.77A4.502 4.502 0 0 0 9.542 2H9.51a4.45 4.45 0 0 0-3.203 1.356A4.546 4.546 0 0 0 5 6.504v.049c0 1.205.47 2.338 1.321 3.19.423.422.926.757 1.478.984a9.298 9.298 0 0 0-.358 2.514v.08c0 1.424.554 2.763 1.561 3.77a5.294 5.294 0 0 0 2.54 1.42v3.669H8.671a.41.41 0 0 0 0 .82h8.203a.41.41 0 1 0 0-.82h-2.871v-3.671a5.341 5.341 0 0 0 4.102-5.189v-.03a11.893 11.893 0 0 0-.148-1.768.397.397 0 0 0-.037-.224 8.836 8.836 0 0 0-.273-1.135l-1.202-3.776a.41.41 0 0 0-.391-.285h-.997l.545-3.282h3.753a.41.41 0 0 0 0-.82zm-6.17 4.102h-2.627l1.867-1.881c.428.542.69 1.19.76 1.88zM9.942 2.845a3.68 3.68 0 0 1 1.906.793l-1.906 1.92V2.844zm-.146 4.077h4.293l-.687 4.143H8.557c.037-.14.078-.28.122-.417l.002-.008 1.115-3.718zm-.674-4.08v2.741L7.194 3.655a3.625 3.625 0 0 1 1.928-.814zm-2.501 1.4l1.86 1.86H5.847a3.72 3.72 0 0 1 .773-1.86zm-.783 2.68h2.74a.41.41 0 0 0-.074.059L6.628 8.856a3.655 3.655 0 0 1-.79-1.934zm1.37 2.515L8.605 8.04l-.57 1.897a3.715 3.715 0 0 1-.827-.5zm5.975 12.743h-.82v-3.528h.82v3.528zm4.101-8.89v.03a4.517 4.517 0 0 1-4.511 4.512 4.481 4.481 0 0 1-3.19-1.322 4.48 4.48 0 0 1-1.322-3.19v-.069c.004-.472.042-.922.116-1.366h8.805c.065.476.1.965.102 1.405zm-1.53-6.368l1.112 3.49c.062.197.12.418.172.652h-2.804l.687-4.142h.833z"/>
</symbol><symbol id="icon-arrow" viewBox="0 0 25 25">
    <path d="M5 6.203L17.067 18.27l-8.158-.002V20h10.225l.846-.02.02-.847V8.91h-1.733l.003 8.158L6.203 5 5 6.203z"/>
</symbol><symbol id="icon-autumn" viewBox="0 0 35 35">
    <g clip-path="url(#a)">
        <path d="M34.892 13.747a1.025 1.025 0 0 0-.917-.567h-4.466v-2.27a1.026 1.026 0 0 0-1.666-.8l-3.219 2.575L26.19 5.64a1.026 1.026 0 0 0-1.46-1.14L21.255 6.24 18.417.567a1.025 1.025 0 0 0-1.834 0L13.747 6.24 10.27 4.502a1.025 1.025 0 0 0-1.46 1.14l1.565 7.042-3.218-2.574a1.026 1.026 0 0 0-1.666.8v2.27H1.025a1.026 1.026 0 0 0-.82 1.64l2.86 3.813-1.794 2.692a1.024 1.024 0 0 0 .394 1.485l5.913 2.957-.974 5.843a1.026 1.026 0 0 0 1.27 1.16l8.6-2.24v3.445a1.025 1.025 0 0 0 2.051 0V30.53l8.601 2.24a1.027 1.027 0 0 0 1.27-1.16l-.974-5.843 5.913-2.956a1.026 1.026 0 0 0 .395-1.486l-1.795-2.692 2.86-3.813a1.025 1.025 0 0 0 .097-1.073zm-5.065 5.42l1.552 2.329-5.551 2.775a1.026 1.026 0 0 0-.553 1.086l.839 5.03-7.589-1.976v-2.695l7.26-5.185a1.025 1.025 0 1 0-1.193-1.669l-6.067 4.334v-10.09a1.026 1.026 0 0 0-2.05 0v10.09l-6.067-4.334a1.025 1.025 0 1 0-1.192 1.67l7.259 5.184v2.695l-7.588 1.976.838-5.03a1.025 1.025 0 0 0-.553-1.086l-5.55-2.775 1.551-2.329a1.026 1.026 0 0 0-.032-1.184l-2.065-2.752h3.441c.566 0 1.026-.46 1.026-1.026v-1.161l3.825 3.06a1.026 1.026 0 0 0 1.641-1.023L11.28 7.299l2.467 1.233a1.025 1.025 0 0 0 1.375-.458L17.5 3.318l2.378 4.756c.253.507.869.712 1.376.458L23.72 7.3l-1.73 7.782a1.025 1.025 0 0 0 1.642 1.023l3.826-3.06v1.161c0 .567.459 1.026 1.025 1.026h3.44l-2.064 2.752a1.025 1.025 0 0 0-.032 1.184z"/>
    </g>
    
</symbol><symbol id="icon-beer" viewBox="0 0 25 25">
    <path d="M17.072 19.945a5.558 5.558 0 0 1 .096-3.668l.08-.21c1.735-4.553 1.237-9.292 1.002-9.966a2.464 2.464 0 0 0-2.994-2.809 3.085 3.085 0 0 0-5.019 0A2.464 2.464 0 0 0 7.243 6.1c-.058.169-.922 4.914 1.003 9.966l.08.21a5.558 5.558 0 0 1 .096 3.67l-.114.354a1.826 1.826 0 0 0 .04 1.78c.334.576.931.92 1.597.92h5.604c.666 0 1.263-.344 1.597-.92a1.826 1.826 0 0 0 .04-1.78l-.114-.355zM9.67 4.457c.198 0 .386.045.56.134a.615.615 0 0 0 .84-.29c.3-.653.959-1.075 1.677-1.075.718 0 1.377.422 1.678 1.075a.615.615 0 0 0 .839.29c.174-.089.362-.134.56-.134.678 0 1.23.516 1.23 1.194h-1.846c-.34 0-.615.312-.615.652v2.544a.616.616 0 0 1-1.23 0v-2.58a.615.615 0 0 0-.616-.616H8.439c0-.678.552-1.194 1.231-1.194zM8.35 7.19v-.007l.029-.264h3.754v1.928c0 1.018.828 1.846 1.846 1.846a1.848 1.848 0 0 0 1.846-1.846V6.919h1.292l.028.264v.007a17.917 17.917 0 0 1-1.046 8.439l-.08.21a6.795 6.795 0 0 0-.36 3.469H9.836a6.795 6.795 0 0 0-.36-3.47l-.08-.21A17.918 17.918 0 0 1 8.35 7.19zm7.732 14.273a.604.604 0 0 1-.532.306H9.945a.605.605 0 0 1-.532-.306c-.195-.336-.02-.517.111-.925h6.446c.14.438.3.6.111.925z"/>
</symbol><symbol id="icon-bread" viewBox="0 0 25 25">
    <g clip-path="url(#a)">
        <path d="M22.131 13.002L8.02 21.149a4.308 4.308 0 0 1-5.868-1.458c-1.28-2.215-.994-5.06.755-7.88l.144-.232a15.626 15.626 0 0 1 3.364-3.674 18.233 18.233 0 0 1 2.41-1.655l.275-.158a18.143 18.143 0 0 1 3.533-1.525l.05-.029a17.12 17.12 0 0 1 1.95-.46 13.589 13.589 0 0 1 2.839-.191c2.952.13 5.17 1.294 6.308 3.265l.02.035a4.308 4.308 0 0 1-1.669 5.815zM3.916 11.889l-.114.179c-1.69 2.6-2.018 5.201-.9 7.138a3.415 3.415 0 0 0 4.671 1.17l14.112-8.148a3.411 3.411 0 0 0 1.34-4.598l.369-.254-.387.223c-.98-1.697-2.956-2.69-5.56-2.8-.888-.031-1.777.03-2.651.185-.615.104-1.223.243-1.821.417l-.035.02c-1.19.363-2.336.852-3.42 1.46l-.248.142a17.08 17.08 0 0 0-2.296 1.578 14.759 14.759 0 0 0-3.06 3.288z"/>
        <path d="M22.131 13.002L8.02 21.149a4.308 4.308 0 0 1-5.868-1.458c-1.28-2.215-.994-5.06.755-7.88l.144-.232a15.626 15.626 0 0 1 3.364-3.674 18.233 18.233 0 0 1 2.41-1.655l.275-.158a18.143 18.143 0 0 1 3.533-1.525l.05-.029a17.12 17.12 0 0 1 1.95-.46 13.589 13.589 0 0 1 2.839-.191c2.952.13 5.17 1.294 6.308 3.265l.02.035a4.308 4.308 0 0 1-1.669 5.815zM3.916 11.889l-.114.179c-1.69 2.6-2.018 5.201-.9 7.138a3.415 3.415 0 0 0 4.671 1.17l14.112-8.148a3.411 3.411 0 0 0 1.34-4.598l.369-.254-.387.223c-.98-1.697-2.956-2.69-5.56-2.8-.888-.031-1.777.03-2.651.185-.615.104-1.223.243-1.821.417l-.035.02c-1.19.363-2.336.852-3.42 1.46l-.248.142a17.08 17.08 0 0 0-2.296 1.578 14.759 14.759 0 0 0-3.06 3.288z"/>
        <path d="M10.685 12.909a1.34 1.34 0 0 1-1.925-.657A7.66 7.66 0 0 1 8.9 6.31a.41.41 0 0 1 .19-.208 18.098 18.098 0 0 1 3.591-1.557.447.447 0 0 1 .378.797 4.91 4.91 0 0 0-1.824 5.868 1.339 1.339 0 0 1-.55 1.699zM9.658 6.8a6.768 6.768 0 0 0-.063 5.104.445.445 0 0 0 .271.256.445.445 0 0 0 .577-.29.446.446 0 0 0-.026-.327 5.803 5.803 0 0 1-.284-3.27c.158-.774.47-1.51.916-2.162-.47.22-.946.432-1.39.69zm-4.187 8.604l-.093.053a1.29 1.29 0 0 1-1.843-.637 7.514 7.514 0 0 1-.56-2.97.478.478 0 0 1 .068-.267A15.624 15.624 0 0 1 6.407 7.91a.446.446 0 0 1 .597.66 4.723 4.723 0 0 0-.92 1.362 4.955 4.955 0 0 0-.08 3.85 1.3 1.3 0 0 1-.533 1.623zm-1.6-3.448c.001.87.173 1.73.505 2.534a.393.393 0 0 0 .555.194l.085-.049a.406.406 0 0 0 .16-.52 5.803 5.803 0 0 1-.236-3.56 13.78 13.78 0 0 0-1.068 1.4zm11.692-1.348a1.339 1.339 0 0 1-1.94-.684 6.281 6.281 0 0 1 .716-5.625.446.446 0 0 1 .305-.176 13.59 13.59 0 0 1 2.839-.19.447.447 0 0 1 .208.807 3.571 3.571 0 0 0-1.533 4.282 1.339 1.339 0 0 1-.595 1.586zm-.575-5.658a5.383 5.383 0 0 0-.517 4.66l.038.065a.447.447 0 0 0 .61.163.446.446 0 0 0 .215-.52 4.464 4.464 0 0 1 .89-4.504c-.413.027-.824.073-1.236.136zm5.531 6.92L7.846 19.187a5.727 5.727 0 0 1-3.253.76.446.446 0 1 1 .055-.888 4.866 4.866 0 0 0 2.751-.645l12.674-7.317a4.866 4.866 0 0 0 1.934-2.06.446.446 0 0 1 .796.396 5.728 5.728 0 0 1-2.284 2.437z"/>
    </g>
    
</symbol><symbol id="icon-burger" viewBox="0 0 25 25">
    <path d="M22.926 17.324h-1.037c.213-.367.336-.779.359-1.202a1.55 1.55 0 0 0 .7-.246 1.36 1.36 0 0 0 .61-.881c.197-.88-.332-2.152-.81-3.062h.178a.674.674 0 0 0 .674-.673c0-4.83-3.95-8.76-8.805-8.76h-5.39C4.55 2.5.6 6.43.6 11.26c0 .372.302.673.674.673h.177c-.477.91-1.006 2.183-.809 3.062.086.383.297.687.61.88.26.161.494.232.7.247.023.423.145.835.358 1.202H1.274a.674.674 0 0 0-.674.674c0 2.6 2.116 4.716 4.717 4.716h13.566c2.6 0 4.717-2.115 4.717-4.716a.674.674 0 0 0-.674-.674zM9.405 3.848h5.39c3.883 0 7.083 2.965 7.426 6.738H1.978c.344-3.773 3.543-6.738 7.427-6.738zm-7.22 10.621a3.678 3.678 0 0 1-.193.279.524.524 0 0 1-.025-.015c-.048-.097-.067-.577.42-1.638.21-.462.45-.888.612-1.162h18.202c.16.27.396.69.607 1.15.491 1.069.473 1.552.425 1.65a.492.492 0 0 1-.025.015 3.819 3.819 0 0 1-.193-.279c-.29-.444-.775-1.188-1.784-1.188-.953 0-1.457.503-1.824.871-.33.33-.493.477-.872.477-.384 0-.563-.158-.901-.485-.377-.364-.892-.863-1.839-.863-.953 0-1.456.503-1.824.871-.33.33-.492.477-.871.477s-.54-.146-.871-.477c-.368-.367-.871-.871-1.824-.871-.947 0-1.462.499-1.839.863-.338.327-.517.485-.901.485-.38 0-.541-.146-.872-.477-.367-.367-.87-.871-1.824-.871-1.009 0-1.494.744-1.784 1.188zm18.72 1.507a1.35 1.35 0 0 1-1.348 1.348H4.643a1.35 1.35 0 0 1-.36-2.647c.188.067.335.206.557.428.368.368.872.871 1.825.871.946 0 1.462-.499 1.838-.863.338-.327.517-.484.902-.484.378 0 .54.146.87.476.368.368.872.871 1.825.871s1.456-.503 1.824-.871c.33-.33.492-.476.871-.476.384 0 .564.157.902.484.376.364.892.863 1.838.863.953 0 1.457-.503 1.824-.871.223-.223.37-.361.557-.428.58.159.988.686.988 1.3zm-15.588 5.39a3.375 3.375 0 0 1-3.302-2.694H9.18l3.594 2.695H5.317zm6.11-2.694h6.769l-3.4 2.527-3.37-2.527zm7.456 2.695H16.83l3.624-2.705h1.73a3.383 3.383 0 0 1-3.301 2.705z"/>
    <path d="M10.078 5.87a.674.674 0 1 1-1.347-.001.674.674 0 0 1 1.347 0zm6.783 1.347a.674.674 0 1 1-1.347 0 .674.674 0 0 1 1.347 0zm-9.523 0a.674.674 0 1 1-1.347 0 .674.674 0 0 1 1.347 0zm6.783-1.348a.674.674 0 1 1-1.348 0 .674.674 0 0 1 1.348 0zm-1.347 2.695a.674.674 0 1 1-1.348 0 .674.674 0 0 1 1.348 0z"/>
</symbol><symbol id="icon-cake" viewBox="0 0 25 25">
    <path d="M18.125 3.075a1.04 1.04 0 0 0-.675 0l-4.725 2.4c-.075 0-.225-.075-.3-.075-.75-1.425-2.175-2.325-3.675-2.4-.45 0-.75.3-.75.75s.3.75.75.75c.75.075 1.5.45 1.95 1.05-.525.3-.975.825-1.125 1.425l-7.2 3.6-.075.075c-.075.075-.15.15-.15.225-.075.075-.075.15-.075.225 0 .075-.075.075-.075.15v10.5c0 .45.3.75.75.75h19.5c.45 0 .75-.3.75-.75v-10.5c0-2.4-1.5-6.45-4.875-8.175zM17.375 15a3.29 3.29 0 0 1-2.025-.675 5.477 5.477 0 0 0-2.85-.825c-.975 0-2.025.3-2.85.825-.6.45-1.35.675-2.025.675a3.29 3.29 0 0 1-2.025-.675c-.675-.375-1.35-.675-2.1-.75V12h18v1.575c-.75.075-1.425.375-2.1.825-.6.375-1.275.6-2.025.6zm.375-10.425C20 5.85 21.2 8.55 21.5 10.5H5.9l3.9-1.95c.6 1.05 2.025 1.425 3.075.825C13.55 9 14 8.25 14 7.5c0-.3-.075-.675-.225-.9l3.975-2.025zM12.5 7.5c0 .45-.3.75-.75.75S11 7.95 11 7.5s.3-.75.75-.75.75.3.75.75zM3.5 21v-5.925c.45.075.9.3 1.275.6.825.525 1.8.825 2.85.825.975 0 2.025-.3 2.85-.825.225-.075.375-.225.525-.3v.375c0 .45.3.75.75.75s.75-.3.75-.75V15c.75 0 1.425.225 2.025.675.3.225.6.375.975.525v2.55c0 .45.3.75.75.75s.75-.3.75-.75V16.5h.75v.75c0 .45.3.75.75.75s.75-.3.75-.75v-1.125c.3-.15.675-.3.975-.525.375-.3.825-.45 1.275-.6v6h-18z"/>
</symbol><symbol id="icon-close" viewBox="0 0 25 25">
    <path d="M19.668 5.344a1.133 1.133 0 0 0-1.604 0L12.5 10.896 6.936 5.332a1.134 1.134 0 0 0-1.604 1.604l5.564 5.564-5.564 5.564a1.135 1.135 0 0 0 1.604 1.604l5.564-5.564 5.564 5.564a1.137 1.137 0 0 0 1.604 0 1.137 1.137 0 0 0 0-1.604L14.104 12.5l5.564-5.564a1.14 1.14 0 0 0 0-1.592z"/>
</symbol><symbol id="icon-coctail" viewBox="0 0 25 25">
    <path d="M18.4 1a4.806 4.806 0 0 0-3.292 1.289 4.779 4.779 0 0 0-1.482 2.799H2.72a.725.725 0 0 0-.634.387.724.724 0 0 0 .032.742L9.83 17.732v4.83H7.455a.719.719 0 0 0 0 1.438h6.211a.719.719 0 0 0 0-1.438h-2.398v-4.83l5.06-7.538a4.836 4.836 0 0 0 6.9-4.365A4.833 4.833 0 0 0 18.4 1zm-1.347 5.525l-1.47 2.202H5.538l-1.47-2.202h12.985zM10.56 16.22l-4.059-6.055h8.119l-4.06 6.055zm7.84-7c-.43 0-.855-.082-1.254-.24l1.85-2.76a.731.731 0 0 0-.596-1.133h-3.313A3.4 3.4 0 0 1 18.4 2.43a3.398 3.398 0 0 1 3.392 3.395A3.398 3.398 0 0 1 18.4 9.22zm-8.468 2.358l-.004.008a.719.719 0 1 1-1.314-.582l.003-.008a.719.719 0 1 1 1.315.582zm1.886 1.786l-.003.008a.719.719 0 1 1-1.314-.582l.003-.008a.719.719 0 0 1 1.315.582z"/>
</symbol><symbol id="icon-coffee" viewBox="0 0 25 25">
    <path d="M7.399 4.641a1.124 1.124 0 0 1 0-1.59.615.615 0 1 0-.87-.87 2.358 2.358 0 0 0 0 3.33c.44.44.44 1.151 0 1.591a.615.615 0 1 0 .87.87 2.358 2.358 0 0 0 0-3.33zm3.691 0a1.124 1.124 0 0 1 0-1.59.615.615 0 1 0-.87-.87 2.358 2.358 0 0 0 0 3.33c.44.44.44 1.151 0 1.591a.615.615 0 0 0 .87.87 2.358 2.358 0 0 0 0-3.33zm3.691 0a1.124 1.124 0 0 1 0-1.59.615.615 0 1 0-.87-.87 2.358 2.358 0 0 0 0 3.33c.44.44.44 1.151 0 1.591a.615.615 0 1 0 .87.87 2.358 2.358 0 0 0 0-3.33zm2.683 13.396A5.543 5.543 0 0 0 23 12.5a1.848 1.848 0 0 0-1.846-1.846h-1.858c.008-.204.012-.41.012-.615a.615.615 0 0 0-.615-.615H2.616a.615.615 0 0 0-.615.615c0 3.363 1.079 6.891 3.328 9.27H2.616a.616.616 0 0 0-.55.89A5.064 5.064 0 0 0 6.599 23h8.112a5.068 5.068 0 0 0 4.533-2.801.616.616 0 0 0-.55-.89h-2.713c.364-.386.706-.811 1.02-1.272h.463zm1.738-6.152h1.953c.34 0 .615.276.615.615a4.312 4.312 0 0 1-4.03 4.298c.769-1.489 1.26-3.17 1.462-4.913zm-1.671 8.646a3.823 3.823 0 0 1-2.82 1.239H6.6a3.823 3.823 0 0 1-2.82-1.24h13.752zm-3.383-1.222H7.162c-2.265-1.714-3.764-5.05-3.918-8.663l14.822.008c-.136 3.193-1.41 6.756-3.918 8.655z"/>
</symbol><symbol id="icon-cognac" viewBox="0 0 25 25">
    <path d="M10.658 18.026v-.764h4.684v.764h-4.684zm2.002 1.342h-2.002v-.763h2.002v.763zm2.682 0H13.34v-.763h2.002v.763zm-4.684 1.342v-.763h4.684v.763h-4.684zm2.002 1.343h-2.002v-.764h2.002v.764zm2.682 0H13.34v-.764h2.002v.764z"/>
    <path fill-rule="evenodd" clip-rule="evenodd" d="M8.36 13.644h2.243A2.419 2.419 0 0 1 13 11.63a2.42 2.42 0 0 1 2.398 2.014h2.241v10.014H8.361V13.644zm7.038.764A2.42 2.42 0 0 1 13 16.42a2.419 2.419 0 0 1-2.397-2.013H9.135v8.486h7.73v-8.486h-1.467zm-4.052-.382c0-.901.74-1.632 1.654-1.632.914 0 1.654.73 1.654 1.632 0 .9-.74 1.631-1.654 1.631-.914 0-1.654-.73-1.654-1.631z"/>
    <path fill-rule="evenodd" clip-rule="evenodd" d="M10.402 2v1.414c-.398.153-.68.536-.68.981 0 .446.282.828.68.981v3.477L8.247 9.88c-.332.159-.655.348-.888.64-.243.306-.359.682-.359 1.157V25h12V11.677c0-.474-.116-.851-.359-1.156-.233-.293-.556-.482-.888-.64l-2.155-1.028V5.376c.398-.153.68-.535.68-.98 0-.446-.282-.829-.68-.982V2h-5.196zm4.422 1.342h-3.648v-.578h3.648v.578zm-3.648 2.685v-.579h3.648v.579h-3.648zm0 .763h3.648v1.921h-3.648v-1.92zm-.299 2.685h4.246l2.294 1.093c.303.144.494.272.616.425.112.14.193.34.193.684v12.56H7.774v-12.56c0-.345.08-.543.193-.684.122-.153.313-.28.616-.425l2.294-1.093zm-.382-5.08c0-.158.133-.29.294-.29h4.422c.16 0 .293.132.293.29 0 .158-.132.29-.293.29H10.79a.293.293 0 0 1-.293-.29z"/>
</symbol><symbol id="icon-cold-snacks" viewBox="0 0 25 25">
    <path d="M19.092 14.986a.732.732 0 1 1-1.465 0 .732.732 0 0 1 1.465 0zm-2.93-1.465a.732.732 0 1 1-1.465 0 .732.732 0 0 1 1.465 0zm5.86 2.93a.732.732 0 1 1-1.465 0 .732.732 0 0 1 1.465 0zm-7.325 0a.732.732 0 1 1-1.465 0 .732.732 0 0 1 1.465 0z"/>
    <path d="M21.85 10.238a3.666 3.666 0 0 0-3.49-4.774c-.544 0-1.08.124-1.568.354a4.392 4.392 0 0 0-7.121.005 3.868 3.868 0 0 0-1.614-.358 3.667 3.667 0 0 0-3.628 3.169 4.405 4.405 0 0 0-2.947 3.768A10.974 10.974 0 0 0 0 17.916a2.2 2.2 0 0 0 2.197 2.197h20.557c1.214 0 2.246-.981 2.246-2.197 0-2.985-1.203-5.696-3.15-7.678zM18.36 6.93a2.2 2.2 0 0 1 2.196 2.18 11.044 11.044 0 0 0-3.017-1.589 4.388 4.388 0 0 0-.098-.391c.285-.132.596-.2.918-.2zm-5.128-1.465a2.95 2.95 0 0 1 2.622 1.626 11.114 11.114 0 0 0-5.412.413 2.934 2.934 0 0 1 2.79-2.04zM8.057 6.93c.33 0 .666.074.965.207a4.374 4.374 0 0 0-.18 1.05c-.37.194-.728.409-1.074.643a4.384 4.384 0 0 0-1.783-.433A2.2 2.2 0 0 1 8.057 6.93zM5.859 9.86c.188 0 .373.017.555.052a11.002 11.002 0 0 0-2.936 4.585A2.933 2.933 0 0 1 5.86 9.86zm-3.662 8.788a.733.733 0 0 1-.732-.732c0-1.051.174-2.089.508-3.072.273.515.645.97 1.094 1.339a10.98 10.98 0 0 0-.137 1.733.733.733 0 0 1-.733.732zm20.557 0H4.269c.083-.235.126-.482.126-.732 0-5.267 4.31-9.521 9.57-9.521 5.248 0 9.57 4.245 9.57 9.521 0 .39-.365.732-.781.732z"/>
</symbol><symbol id="icon-drink" viewBox="0 0 26 25">
    <path d="M6.876 12.74v.015L8.157 23.01c.047.391.38.683.776.683h8.334a.782.782 0 0 0 .776-.683l1.198-9.583v-.005l.885-7.078a.793.793 0 0 0-.187-.615.785.785 0 0 0-.589-.26h-3.896l.401-2.604h3.495a.78.78 0 1 0 0-1.563h-4.167a.779.779 0 0 0-.77.662l-.542 3.505H6.85a.78.78 0 0 0-.77.88l.795 6.39zm8.339-5.709h3.25l-.698 5.573c-1.651.115-2.724.115-3.422.073l.87-5.646zm-1.11 7.193c.36.026.76.042 1.219.042a33.7 33.7 0 0 0 2.25-.084l-.995 7.954H9.621l-1.094-8.74c2.953-.193 3.485.172 3.495.177.14.14.323.255.547.349l-.245 1.583a.782.782 0 0 0 .651.89.778.778 0 0 0 .89-.651l.24-1.52zm-.474-7.193l-.802 5.209c-.552-.329-1.693-.589-4.495-.396L7.736 7.03h5.895z"/>
</symbol><symbol id="icon-drinks-bottle" viewBox="0 0 25 25">
    <path d="M9.833 23h5.084a1.838 1.838 0 0 0 1.833-1.833v-4.73a1.313 1.313 0 0 0-.341-.875c.218-.24.34-.55.341-.874v-3.5a1.313 1.313 0 0 0-.341-.876c.218-.24.34-.55.341-.874V8.64a1.833 1.833 0 0 0-.438-1.194L14.126 4.9v-.276a.438.438 0 0 0 .438-.438v-1.75a.438.438 0 0 0-.44-.436h-3.5a.438.438 0 0 0-.438.438v1.75a.438.438 0 0 0 .438.437v.276L8.438 7.447A1.833 1.833 0 0 0 8 8.64v.796c.002.324.123.636.341.876-.218.24-.34.55-.341.874v3.5c.002.324.123.636.341.876-.218.24-.34.55-.341.874v4.73A1.837 1.837 0 0 0 9.833 23zm1.23-20.125h2.624v.875h-2.624v-.875zM8.874 16.438A.438.438 0 0 1 9.313 16h.437v-.875h-.437a.438.438 0 0 1-.438-.438v-3.5a.438.438 0 0 1 .438-.437h.437v-.875h-.437a.437.437 0 0 1-.438-.438v-.796c0-.23.082-.451.232-.625l2.288-2.67a.437.437 0 0 0 .105-.284v-.437h1.75v.438c0 .104.037.205.105.284l2.288 2.669c.15.174.232.396.232.625v.796a.438.438 0 0 1-.438.438h-4.812v.875h4.813a.438.438 0 0 1 .437.438v3.5a.438.438 0 0 1-.438.437h-4.812V16h4.813a.438.438 0 0 1 .437.438v4.729a.958.958 0 0 1-.958.958h-.792c.286-.377.44-.839.438-1.313h-.876a1.313 1.313 0 0 1-2.624 0h-.876c-.002.474.152.936.438 1.313h-.792a.958.958 0 0 1-.958-.958v-4.73z"/>
</symbol><symbol id="icon-food" viewBox="0 0 26 25">
    <g clip-path="url(#a)">
        <path d="M24.667 18.113h-1.126c.231-.398.365-.846.39-1.306.223-.017.478-.094.76-.268.34-.21.57-.542.663-.958.215-.955-.36-2.339-.879-3.327h.192a.732.732 0 0 0 .733-.733C25.4 6.271 21.107 2 15.83 2H9.97C4.694 2 .4 6.271.4 11.521c0 .405.328.732.733.732h.192c-.518.99-1.093 2.373-.879 3.328.094.416.323.747.663.958.282.174.537.25.76.267.025.46.159.908.39 1.307H1.133a.732.732 0 0 0-.732.732c0 2.827 2.3 5.127 5.126 5.127h14.746c2.827 0 5.127-2.3 5.127-5.127a.732.732 0 0 0-.733-.732zM9.97 3.465h5.86c4.22 0 7.699 3.223 8.072 7.324H1.899c.373-4.1 3.85-7.324 8.071-7.324zM2.123 15.01a4.023 4.023 0 0 1-.21.303.575.575 0 0 1-.027-.016c-.052-.106-.072-.627.456-1.78.23-.502.49-.966.666-1.263h19.785c.174.293.43.75.66 1.249.534 1.162.514 1.688.461 1.794a.699.699 0 0 1-.027.016 4.16 4.16 0 0 1-.21-.303c-.315-.483-.842-1.292-1.94-1.292-1.035 0-1.582.548-1.982.947-.359.36-.535.518-.947.518-.417 0-.613-.17-.98-.526-.409-.396-.97-.939-1.998-.939-1.036 0-1.583.548-1.983.947-.359.36-.535.518-.947.518-.412 0-.588-.159-.947-.518-.4-.4-.947-.947-1.983-.947-1.028 0-1.589.543-1.998.939-.367.355-.562.526-.98.526-.412 0-.588-.159-.947-.518-.4-.4-.947-.947-1.983-.947-1.096 0-1.624.81-1.939 1.292zm20.347 1.638c0 .808-.657 1.465-1.465 1.465H4.795a1.467 1.467 0 0 1-.39-2.877c.203.072.362.223.604.465.4.4.947.947 1.983.947 1.029 0 1.59-.542 1.999-.938.367-.356.562-.527.98-.527.411 0 .587.16.947.518.399.4.946.947 1.982.947s1.583-.547 1.983-.947c.359-.359.535-.518.947-.518.417 0 .612.171.98.527.409.396.97.938 1.998.938 1.036 0 1.583-.547 1.983-.947.242-.242.4-.393.605-.465a1.46 1.46 0 0 1 1.074 1.412zm-16.943 5.86a3.668 3.668 0 0 1-3.588-2.93h7.787l3.907 2.93H5.527zm6.64-2.93h7.359l-3.694 2.748-3.664-2.748zm8.106 2.93h-2.232l3.94-2.94h1.88c-.34 1.67-1.82 2.94-3.588 2.94z"/>
        <path d="M10.703 5.662a.733.733 0 1 1-1.465 0 .733.733 0 0 1 1.465 0zm7.373 1.465a.732.732 0 1 1-1.465 0 .732.732 0 0 1 1.465 0zm-10.352 0a.732.732 0 1 1-1.464 0 .732.732 0 0 1 1.464 0zm7.373-1.465a.733.733 0 1 1-1.465 0 .733.733 0 0 1 1.465 0zm-1.464 2.93a.732.732 0 1 1-1.465 0 .732.732 0 0 1 1.465 0z"/>
    </g>
    
</symbol><symbol id="icon-fruit-slice" viewBox="0 0 25 25">
    <g clip-path="url(#a)">
        <path fill-rule="evenodd" clip-rule="evenodd" d="M.03 12.305c0 .816.462 1.525 1.14 1.877H.391a.391.391 0 0 0-.391.39 7.39 7.39 0 0 0 5.06 7.013 2.684 2.684 0 0 1 1.856 2.541c0 .216.176.392.392.392h10.384a.391.391 0 0 0 .392-.392c0-1.156.75-2.174 1.856-2.54A7.39 7.39 0 0 0 25 14.572a.391.391 0 0 0-.391-.392h-1.147A5.964 5.964 0 0 0 25 10.184v-.014a5.965 5.965 0 0 0-1.753-4.224.391.391 0 0 0-.553 0l-5.108 5.107a4.45 4.45 0 0 0-.409-1.321l-1.662-3.386c-.58-1.183-1.569-1.867-2.623-2.002v-.742c0-1.036.84-1.876 1.875-1.876a.391.391 0 1 0 0-.783 2.658 2.658 0 0 0-2.658 2.659v.742c-1.055.135-2.043.82-2.623 2.002l-.35.712a2.113 2.113 0 1 0-4.166.71 2.127 2.127 0 0 0-1.632.385c-.735-.485-1.207-1.374-1.341-2.523a.391.391 0 0 0-.777.09c.146 1.255.667 2.358 1.583 3.015a2.103 2.103 0 0 0-.283 1.491 2.113 2.113 0 0 0-2.49 2.079zm10.158-5.614c.532-1.083 1.438-1.59 2.312-1.59.874 0 1.78.507 2.313 1.59l1.662 3.385c.27.553.388 1.142.375 1.713l-2.392 2.393h-2.173a2.108 2.108 0 0 0-1.966-2.277 2.114 2.114 0 0 0-1.1-3.241l.969-1.973zm4.45 8.273a.43.43 0 0 1-.036 0H.794a6.609 6.609 0 0 0 4.512 5.879 3.474 3.474 0 0 1 2.37 2.892h9.647a3.474 3.474 0 0 1 2.37-2.892 6.609 6.609 0 0 0 4.513-5.879h-5.172a.534.534 0 0 1-.036 0h-4.36zm-3.518-1.891c.302.302.429.714.379 1.108h-2.64a1.33 1.33 0 0 1 2.26-1.109zm-3.053.932c0 .059.002.118.007.176h-.097c.033-.057.063-.116.09-.176zm-.988-1.806l.45 1.982H5.312A1.33 1.33 0 1 1 7.08 12.2zm-3.05 1.056c.018.321.108.639.271.926H3.114c.394-.204.715-.529.915-.926zm18.343.896l-.036.03h-2.929v-3.06l3 3-.035.03zm-3.748-3.03v3.06h-3.06l1.937-1.936a.52.52 0 0 0 .021-.021l1.102-1.102zm-10.168 1.67a2.122 2.122 0 0 1-.239-.03c.024.129.035.258.034.388.056-.124.124-.244.205-.358zm-1.94-1.73a2.12 2.12 0 0 1-.03-.262 2.122 2.122 0 0 1-.14.239 2.081 2.081 0 0 1 .17.023zm-2.124.89a2.099 2.099 0 0 1-.171-.024c.015.086.026.174.03.263a2.1 2.1 0 0 1 .141-.24zM6.845 9.5c-.05.074-.096.152-.137.233a2.13 2.13 0 0 0-.03-.256c.056.01.111.018.167.023zm1.75-.147h.051a1.33 1.33 0 1 1-.05 0zm-4.931-.451a1.326 1.326 0 0 0-.395.946 1.33 1.33 0 1 0 .395-.946zm2.255-.806a1.33 1.33 0 1 1 2.263-1.398 1.33 1.33 0 0 1-2.263 1.398zm-5.107 4.21a1.33 1.33 0 1 1 2.66 0 1.33 1.33 0 0 1-2.66 0zm22.148 1.262l-3-3h4.242a5.18 5.18 0 0 1-1.242 3zm-3-3.782h4.242a5.179 5.179 0 0 0-1.242-3l-3 3z"/>
    </g>
    
</symbol><symbol id="icon-geo" viewBox="0 0 20 20">
    <path fill-rule="evenodd" clip-rule="evenodd" d="M9.383 17.793c.035.28.13.497.403.607h.21c.253-.082.386-.261.412-.52.037-.379.177-.722.368-1.047.375-.637.89-1.153 1.427-1.65.362-.336.742-.65 1.121-.965.303-.25.605-.5.898-.761 1.826-1.623 2.615-3.65 2.312-6.08A6.311 6.311 0 0 0 14.73 3.66c-1.586-1.616-3.519-2.284-5.764-1.994A6.301 6.301 0 0 0 5.25 3.482c-1.7 1.69-2.343 3.74-1.928 6.104.254 1.431.945 2.643 2.007 3.64.359.338.737.65 1.117.963.246.204.493.407.734.618.59.513 1.162 1.043 1.623 1.68.284.395.52.816.58 1.306zM7.555 8.31a2.355 2.355 0 0 0 2.34 2.358 2.355 2.355 0 0 0 .01-4.71 2.359 2.359 0 0 0-2.35 2.352z"/>
</symbol><symbol id="icon-home" viewBox="0 0 26 25">
    <path fill-rule="evenodd" clip-rule="evenodd" d="M13.3 1.507a.814.814 0 0 0-.107-.007H7.41c-1.639 0-2.945.552-3.836 1.526C2.694 3.99 2.3 5.278 2.3 6.62v1.975c0 .654.072 1.476.525 2.195.086.135.176.263.27.382.153.195.317.37.49.527v6.194c0 1.59.22 2.955 1.106 3.886.895.942 2.27 1.233 4.004 1.233h9.058c1.803 0 3.245-.29 4.209-1.201.978-.924 1.267-2.294 1.267-3.918V11.49a4.2 4.2 0 0 0 .545-.701c.454-.72.526-1.54.526-2.195V6.619c0-1.24-.189-2.553-1-3.555-.842-1.04-2.197-1.564-4.109-1.564h-5.784a.814.814 0 0 0-.107.007zM4.79 4.138c-.54.592-.84 1.45-.84 2.481v1.975c0 .568.072 1.001.271 1.316.135.214.29.396.462.547a.82.82 0 0 1 .378.272c1.064.612 2.483.277 3.208-.867a2.738 2.738 0 0 0 .232-.44l.011-.028V3.149H7.41c-1.253 0-2.088.41-2.618.99zm5.371-.989v6.222c.382.922 1.597 1.611 3.084 1.658 1.468.046 2.728-.55 3.193-1.664V3.15h-3.03a.814.814 0 0 1-.108-.007.814.814 0 0 1-.107.007h-3.032zm11.418 9.363c-1.537.47-3.285-.06-4.347-1.359-1.022 1.126-2.608 1.57-4.038 1.524-1.363-.042-2.854-.538-3.813-1.54-1.012 1.25-2.657 1.797-4.146 1.434v5.321c0 1.533.237 2.315.65 2.75.405.425 1.173.72 2.81.72h9.058c1.709 0 2.593-.295 3.076-.751.47-.443.75-1.22.75-2.719v-5.38zm-3.492-3.118l.011.028c.036.09.106.24.233.44.943 1.49 3.065 1.608 4.048.048.103-.164.172-.36.215-.59a3.96 3.96 0 0 0 .057-.726V6.619c0-1.13-.186-1.966-.633-2.518-.417-.515-1.204-.952-2.827-.952h-1.104v6.245z"/>
</symbol><symbol id="icon-hookah" viewBox="0 0 25 25">
    <path fill-rule="evenodd" clip-rule="evenodd" d="M10.032 1.336A.71.71 0 0 1 10.635 1h5.14a.71.71 0 0 1 .635 1.027l-.772 1.546h1.423a.71.71 0 1 1 0 1.419h-.653A3.285 3.285 0 0 1 15.2 6.888v.81l5.15 5.154a5.073 5.073 0 0 1 1.483 3.586v1.491c0 2.8-2.267 5.071-5.066 5.071H4.21a.71.71 0 1 1 0-1.42h3.422a2.55 2.55 0 0 1-.276-1.142v-.007a.87.87 0 0 1 0-.022c0-1.665.853-3.12 2.145-4.072L6.397 13.23a5.073 5.073 0 0 1 2.391-8.514.71.71 0 0 1 .562-1.143h1.422L10 2.027a.71.71 0 0 1 .032-.69zm4.596 1.083l-.576 1.154h-1.693l-.576-1.154h2.845zM9.98 5.993c.148 0 .296.01.443.027.208.334.475.628.788.868v6.043a2.598 2.598 0 0 0-1.257 1.851l-2.553-2.555a3.654 3.654 0 0 1 2.58-6.234zm2.65 1.521v5.062h1.15V7.514h-.001a3.258 3.258 0 0 1-.574.05c-.196 0-.388-.017-.575-.05zm2.57 5.417V9.706l4.146 4.15a3.654 3.654 0 0 1 1.068 2.582v1.491a3.646 3.646 0 0 1-1.386 2.865 2.57 2.57 0 0 0 .027-.362v-.023c0-1.84-1.043-3.426-2.57-4.357v-.879c0-.956-.516-1.791-1.285-2.242zm1.26 8.65a1.17 1.17 0 0 0 1.176-1.154v-.018c0-1.376-.845-2.624-2.184-3.31a4.912 4.912 0 0 0-2.123-.529h-.248c-.777.019-1.5.21-2.123.53-1.336.684-2.18 1.928-2.184 3.301v.026-.001l-.709.003h.71v-.002A1.17 1.17 0 0 0 9.95 21.58h6.51zm-5.115-6.16a6.443 6.443 0 0 1 1.711-.27h.003a7.73 7.73 0 0 1 .293 0h.002a6.443 6.443 0 0 1 1.712.27v-.248c0-.518-.335-.96-.801-1.116h-.002a1.174 1.174 0 0 0-.373-.061h-1.37c-.132 0-.257.021-.373.06h-.001a1.178 1.178 0 0 0-.801 1.117v.248zm2.79-9.524a1.85 1.85 0 0 1-.823.245h-.006a1.845 1.845 0 0 1-1.03-.246 1.87 1.87 0 0 1-.755-.82v-.001a1.847 1.847 0 0 1-.036-.083h3.441a1.87 1.87 0 0 1-.791.905z"/>
</symbol><symbol id="icon-hot-food" viewBox="0 0 25 25">
    <path fill-rule="evenodd" clip-rule="evenodd" d="M5.86 22.74c0 .405.327.733.732.733h11.816a.732.732 0 0 0 .733-.733v-1.473c3.437-1.434 5.859-4.82 5.859-8.78a.732.732 0 0 0-.732-.733H.732a.732.732 0 0 0-.732.732c0 3.962 2.423 7.346 5.86 8.78v1.474zm1.464-.732v-1.244a.732.732 0 0 0-.488-.69 8.09 8.09 0 0 1-4.49-3.926h20.308a8.091 8.091 0 0 1-4.49 3.926.732.732 0 0 0-.488.69v1.244H7.324zm15.907-7.324H1.769a8.001 8.001 0 0 1-.271-1.465h22.004a7.998 7.998 0 0 1-.271 1.465z"/>
    <path d="M7.588 8.61a.732.732 0 0 0 1.035 0 2.804 2.804 0 0 0 0-3.966 1.34 1.34 0 0 1 0-1.894.732.732 0 1 0-1.035-1.035 2.804 2.804 0 0 0 0 3.965 1.34 1.34 0 0 1 0 1.894.732.732 0 0 0 0 1.036z"/>
    <path d="M13.018 8.61a.732.732 0 0 1-1.036-1.036 1.34 1.34 0 0 0 0-1.894 2.804 2.804 0 0 1 0-3.965.732.732 0 1 1 1.036 1.035 1.34 1.34 0 0 0 0 1.894 2.804 2.804 0 0 1 0 3.966z"/>
    <path d="M16.377 8.61a.732.732 0 0 0 1.035 0 2.804 2.804 0 0 0 0-3.966 1.34 1.34 0 0 1 0-1.894.732.732 0 1 0-1.035-1.035 2.804 2.804 0 0 0 0 3.965 1.34 1.34 0 0 1 0 1.894.732.732 0 0 0 0 1.036z"/>
</symbol><symbol id="icon-ice-summer" viewBox="0 0 512 512">
    <path d="M399.871 165.296h-12.997c-4.783-62.378-53.562-112.628-115.278-119.715V0h-30v45.581c-61.716 7.087-110.495 57.336-115.278 119.715h-15.189c-8.284 0-15 6.716-15 15s6.716 15 15 15h15.809L148.862 511h215.469l21.924-315.704h13.617c8.284 0 15-6.716 15-15s-6.717-15-15.001-15zm-43.112 0h-85.163V75.835c45.15 6.775 80.586 43.638 85.163 89.461zM241.596 75.835v89.461h-85.163c4.577-45.823 40.014-82.686 85.163-89.461zM336.341 481h-159.49L157.01 195.296h199.172z" data-original="#000000"/>
    <path d="M249.998 375.46a79.97 79.97 0 0 0 17.206 1.883c14.955 0 29.628-4.256 42.534-12.503l12.64-8.078-85.38-133.604-12.639 8.077c-36.835 23.54-47.651 72.658-24.112 109.492 11.402 17.845 29.071 30.179 49.751 34.733zm-20.869-108.901l50.558 79.113c-20.16 5.335-42.346-2.607-54.162-21.098-11.817-18.491-9.706-41.961 3.604-58.015zm-16.381 126.745c-7.846 0-15.363 6.899-15 15 .364 8.127 6.591 15 15 15 7.846 0 15.363-6.899 15-15-.364-8.127-6.59-15-15-15zm66.868 32.886c-7.846 0-15.363 6.899-15 15 .364 8.127 6.591 15 15 15 7.846 0 15.363-6.899 15-15-.364-8.127-6.59-15-15-15zm36.175-171.699c7.846 0 15.363-6.899 15-15-.364-8.127-6.591-15-15-15-7.846 0-15.363 6.899-15 15 .364 8.127 6.59 15 15 15z" data-original="#000000"/>
</symbol><symbol id="icon-info" viewBox="0 0 25 25">
    <path d="M14.695 9.766v10.156a2.344 2.344 0 1 1-4.687 0v-7.813h-.14a1.562 1.562 0 0 1-1.563-1.562v-.781a1.563 1.563 0 0 1 1.562-1.563h3.266a1.563 1.563 0 0 1 1.562 1.563zm-2.343-2.344a2.344 2.344 0 1 0 0-4.688 2.344 2.344 0 0 0 0 4.688z"/>
</symbol><symbol id="icon-inst" viewBox="0 0 20 20">
    <path d="M10.864 1.6a72.64 72.64 0 0 1 1.838.02l.163.005.598.025c.894.042 1.504.184 2.04.391a4.095 4.095 0 0 1 1.488.968c.427.42.757.928.968 1.489.208.535.349 1.145.39 2.04.01.223.02.408.026.597l.005.163c.012.414.018.893.02 1.838v1.727c.002.613-.004 1.226-.02 1.838l-.004.163c-.007.19-.015.375-.026.598-.042.895-.184 1.504-.39 2.04a4.112 4.112 0 0 1-.97 1.488c-.42.427-.927.758-1.488.969-.535.207-1.145.348-2.039.39-.199.01-.398.018-.598.025l-.162.005a68.43 68.43 0 0 1-1.84.02H9.138A65.91 65.91 0 0 1 7.3 18.38l-.163-.005c-.2-.007-.399-.016-.598-.026-.894-.042-1.504-.183-2.04-.39a4.107 4.107 0 0 1-1.487-.969 4.119 4.119 0 0 1-.97-1.488c-.207-.535-.348-1.145-.39-2.04-.01-.2-.018-.399-.025-.598l-.005-.163a66.396 66.396 0 0 1-.02-1.838V9.136c-.003-.612.003-1.225.018-1.838l.006-.163.025-.598c.042-.894.183-1.503.39-2.04.212-.56.543-1.068.972-1.488a4.113 4.113 0 0 1 1.486-.968c.536-.207 1.145-.349 2.04-.39.223-.01.41-.02.598-.026L7.3 1.62a66.316 66.316 0 0 1 1.838-.02h1.727zM10 5.8a4.2 4.2 0 1 0 0 8.4 4.2 4.2 0 0 0 0-8.4zm0 1.68a2.52 2.52 0 1 1 0 5.039 2.52 2.52 0 0 1 0-5.04m4.41-2.94a1.05 1.05 0 1 0 0 2.1 1.05 1.05 0 0 0 0-2.1z"/>
</symbol><symbol id="icon-limonade" viewBox="0 0 25 25">
    <path fill-rule="evenodd" clip-rule="evenodd" d="M8.568 11.573a4.79 4.79 0 1 1 4.974-5.38h2.472l1.465-3.779a.597.597 0 1 1 1.114.432l-1.298 3.346h3.664a.597.597 0 0 1 .596.644L20.32 22.45a.597.597 0 0 1-.595.55h-9.703a.597.597 0 0 1-.596-.55l-.859-10.877zm-3.324-5.38h2.104L5.86 4.703a3.56 3.56 0 0 0-.616 1.488zm1.46-2.333l1.488 1.488V3.243a3.576 3.576 0 0 0-1.488.617zm2.682-.617v2.105l1.488-1.488a3.576 3.576 0 0 0-1.488-.617zm2.332 1.461l-1.487 1.488h2.104a3.574 3.574 0 0 0-.617-1.488zm-4.37 2.682L5.86 8.874a3.575 3.575 0 0 1-.616-1.488h2.104zm-.644 2.332l1.592-1.591.177 2.243a3.576 3.576 0 0 1-1.769-.652zm8.847-2.332H9.435l.237 2.998h4.716l1.163-2.998zm.118 2.998l1.163-2.998h3.482l-.238 2.998H15.67zm-1.744 1.194l-2.052 5.291a.597.597 0 1 0 1.114.432l2.22-5.723h4.775l-.613 7.761h-8.99l-.613-7.76h4.16zm-3.451 8.955l.1 1.273h8.6l.1-1.273h-8.8z"/>
</symbol><symbol id="icon-main-dish" viewBox="0 0 25 25">
    <g clip-path="url(#a)">
        <path d="M24.219 20.41h-.88v-.098a10.859 10.859 0 0 0-8.593-10.604V8.594a2.246 2.246 0 1 0-4.492 0v1.114A10.86 10.86 0 0 0 1.66 20.312v.098H.781a.684.684 0 0 0-.683.684 3.813 3.813 0 0 0 3.808 3.808h17.188a3.813 3.813 0 0 0 3.808-3.808.683.683 0 0 0-.683-.684zM11.62 8.594a.879.879 0 0 1 1.758 0v.917a10.9 10.9 0 0 0-.879-.039c-.296 0-.589.016-.879.04v-.918zM3.027 20.313a9.473 9.473 0 0 1 18.946 0v.097H3.027v-.098zm18.067 3.222H3.906a2.446 2.446 0 0 1-2.344-1.758h21.875a2.446 2.446 0 0 1-2.343 1.758zM12.5 4.59a.684.684 0 0 0 .684-.684V.781a.684.684 0 1 0-1.368 0v3.125a.684.684 0 0 0 .684.684zM8.984 5.762a.683.683 0 0 0 .684-.684V2.734a.684.684 0 1 0-1.367 0v2.344a.683.683 0 0 0 .683.684zm7.032 0a.683.683 0 0 0 .683-.684V2.734a.684.684 0 1 0-1.367 0v2.344a.683.683 0 0 0 .684.684z"/>
    </g>
    
</symbol><symbol id="icon-pasta" viewBox="0 0 25 25">
    <path d="M24.167 13.386h-1.493a11.875 11.875 0 0 1-1.299-1.825c-.612-1.055-1.191-2.052-2.184-2.584-1.333-.72-2.83-.397-3.485-.443a5.244 5.244 0 0 1-.59-.52c-.137-.13-.246-.251-.35-.366a3.715 3.715 0 0 0-1.308-.997c.095-.066.185-.14.267-.22 1.39-1.389 1.055-3.506 1.042-3.595a.417.417 0 0 0-.342-.343c-.09-.014-2.209-.349-3.597 1.042-.066.07-.127.144-.183.223a2.116 2.116 0 0 0-.183-.223c-1.39-1.39-3.506-1.055-3.596-1.042a.417.417 0 0 0-.343.343c-.015.09-.348 2.208 1.042 3.595.11.109.233.204.364.285h-.003c-.302.17-.584.372-.843.601a6.34 6.34 0 0 0-1.341 1.755c-1.021.38-3.034 1.26-3.726 4.314H.833a.833.833 0 0 0-.817.997l.228 1.135a8.773 8.773 0 0 0 8.58 7.034h7.352a8.773 8.773 0 0 0 8.58-7.034l.228-1.136a.832.832 0 0 0-.817-.996zm-9.672-4.813c.275.31.604.568.97.764.577.164 2.1-.292 3.33.375.786.42 1.307 1.317 1.87 2.287.282.48.592.944.929 1.387h-1.061c-.203-.31-.4-.642-.59-.969-.494-.854-.96-1.661-1.541-1.973a3.74 3.74 0 0 0-1.966-.258c-.434.05-.873.022-1.297-.083a3.846 3.846 0 0 1-1.183-.892l-.237-.225c.17-.184.387-.316.627-.384.055-.011.098-.018.149-.029zm-5.37 3.003c.059-.105.116-.21.17-.316.078-.148.154-.29.234-.42.443.341.865.71 1.263 1.104.526.517 1.087.999 1.678 1.442h-1.334a29.466 29.466 0 0 1-.916-.838l-.032-.029c-.433-.408-.787-.732-1.063-.943zm.772 1.81H6.48c.275-.232.599-.399.947-.49.404-.118.784-.308 1.12-.56.032-.027.058-.06.087-.089.274.212.69.601.99.88l.028.027c.078.076.163.155.245.232zm1.467-2.049c-.417-.393-.819-.77-1.198-1.062.303-.056.613-.07.92-.041l.246.008c.299.168.566.388.788.65a6.257 6.257 0 0 0 2.148 1.554c1.69.625 2.555-.243 3.187.705l.132.233h-2.193a4.901 4.901 0 0 1-1.708-.25c-.751-.317-1.585-1.103-2.322-1.797zm3.195.33a5.589 5.589 0 0 1-1.853-1.367c-.074-.074-.15-.147-.225-.22.252-.117.48-.28.67-.483l.225.214c.412.455.913.82 1.47 1.075.528.15 1.08.196 1.626.134a3.188 3.188 0 0 1 1.534.16c.372.2.801.94 1.216 1.656.106.184.214.368.323.551h-.982c-.141-.217-.27-.438-.394-.664-.82-1.488-2.06-.484-3.61-1.057zm-.71-3.77c-.412.197-.77.488-1.046.85l-.003.003-.004.004v.003c-.536.614-.67.688-1.673.645-1.44-.065-1.88.173-2.563 1.47a2.878 2.878 0 0 1-.554.83 2.92 2.92 0 0 1-.862.411c-.59.214-1.366.498-1.593 1.273H4.64c.416-1.404 1.406-1.765 2.216-2.057.185-.06.366-.132.541-.218a.416.416 0 0 0 .132-.117c.108-.165.205-.336.292-.512.222-.483.533-.92.916-1.289a2.18 2.18 0 0 1 .406-.294 3.62 3.62 0 0 1 2.008-.33c.27.052.55.02.802-.093.237-.179.708-.738 1.155-1.07.272.122.522.288.741.491zm-2.432-3.774a3.327 3.327 0 0 1 2.348-.84c.075 0 .145 0 .208.005a3.443 3.443 0 0 1-.833 2.554 1.246 1.246 0 0 1-1.72 0 1.217 1.217 0 0 1-.003-1.72zm-4.1-.834a3.437 3.437 0 0 1 2.555.834 1.218 1.218 0 0 1 0 1.72 1.247 1.247 0 0 1-1.72 0 3.445 3.445 0 0 1-.837-2.555l.002.001zM6.172 9.802a.42.42 0 0 0 .224-.193 5.688 5.688 0 0 1 1.235-1.667c.214-.192.448-.36.698-.5a5.38 5.38 0 0 1 3.841-.337c-.182.172-.566.563-.65.642-.1 0-.226-.008-.338-.014-.84-.092-1.69.06-2.447.436-.2.112-.386.247-.555.401a5.04 5.04 0 0 0-1.102 1.53 7.407 7.407 0 0 1-.171.319c-.104.042-.265.099-.33.122-.879.316-2.315.837-2.8 2.842h-.908a4.725 4.725 0 0 1 3.303-3.58zm17.767 5.553a7.937 7.937 0 0 1-7.763 6.364H8.824a7.938 7.938 0 0 1-7.763-6.364l-.228-1.136h23.334l-.228 1.136z"/>
    <path fill-rule="evenodd" clip-rule="evenodd" d="M8.824 20.052a6.25 6.25 0 0 1-6.052-4.687.416.416 0 1 0-.806.208 7.083 7.083 0 0 0 6.858 5.313.417.417 0 1 0 0-.834z"/>
</symbol><symbol id="icon-phone" viewBox="0 0 20 20">
    <path d="M12.8 13.535l1.447-1.447a1.414 1.414 0 0 1 1.512-.31l1.763.704a1.408 1.408 0 0 1 .878 1.292v3.229a1.401 1.401 0 0 1-1.473 1.388C4.573 17.623 2.08 7.161 1.61 3.156A1.401 1.401 0 0 1 3.01 1.6h3.12a1.395 1.395 0 0 1 1.291.878l.704 1.763a1.395 1.395 0 0 1-.304 1.512L6.375 7.199s.833 5.638 6.426 6.336z"/>
</symbol><symbol id="icon-pizza" viewBox="0 0 24 24">
    <path d="M9 10.99a1 1 0 1 0 0-2 1 1 0 0 0 0 2zm5 1.998a1 1 0 1 1-2 0 1 1 0 0 1 2 0zm-5 3.998a1 1 0 1 0 0-2 1 1 0 0 0 0 2zM5 4.66c0-1.497 1.23-2.805 2.82-2.648A20.782 20.782 0 0 1 21.262 8.84c1.07 1.193.737 2.964-.479 3.845-1.582 1.148-3.94 2.857-5.283 3.833-.002.437-.002.721-.001 1.092v.628a1.75 1.75 0 0 1-2.056 1.724c-.204.826-.932 1.527-1.944 1.527-.7 0-1.262-.335-1.609-.815l-1.325.957c-1.488 1.074-3.57.011-3.569-1.826L5 4.66zm2.673-1.155c-.609-.06-1.174.443-1.174 1.155v.52a17.547 17.547 0 0 1 12.985 6.594l.419-.304c.578-.42.652-1.173.242-1.63A19.282 19.282 0 0 0 7.673 3.507m-1.177 16.3a.75.75 0 0 0 1.19.608l2.128-1.533a.75.75 0 0 1 1.188.608c0 .27.209.5.497.5a.497.497 0 0 0 .502-.5v-1.251a.75.75 0 0 1 1.5 0 .248.248 0 0 0 .425.177.25.25 0 0 0 .073-.177v-.622c-.001-.47-.002-.808.005-1.489a.749.749 0 0 1 .308-.6c.902-.656 2.496-1.812 3.956-2.87a16.04 16.04 0 0 0-11.77-5.974l-.002 13.123z"/>
</symbol><symbol id="icon-salad" viewBox="0 0 25 25">
    <path d="M24.512 11.218h-.036a2.458 2.458 0 0 0-.11-3.095c.076-.344.135-.692.177-1.042a9.212 9.212 0 0 0 .073-1.328.488.488 0 0 0-.47-.468c-.02-.001-.5-.018-1.21.059-.16.017-.328.04-.5.066a2.998 2.998 0 0 0-2.018-2.219A2.605 2.605 0 0 0 17.853 1c-1.29 0-2.37.953-2.565 2.192a2.97 2.97 0 0 0-1.209.738 8.52 8.52 0 0 0-1.173-1.416.488.488 0 0 0-.663 0c-.071.067-1.35 1.268-1.99 2.992a2.576 2.576 0 0 0-3.244-.5 2.56 2.56 0 0 0-3.135-.694 2.248 2.248 0 0 0-2.86.257 2.247 2.247 0 0 0-.257 2.86 2.56 2.56 0 0 0 .69 3.129 2.574 2.574 0 0 0-.289.66h-.67a.488.488 0 0 0-.488.488v3.092c0 3.85 3.072 6.995 6.894 7.114V23c0 .8.65 1.45 1.45 1.45h7.83c.8 0 1.45-.65 1.45-1.45v-1.089C21.711 21.795 25 18.433 25 14.319v-2.614a.488.488 0 0 0-.488-.487zm-.514-1.48c0 .62-.384 1.152-.926 1.372.387-.523.679-1.09.898-1.657.018.094.028.19.028.285zm-.956-3.424c.226-.025.426-.039.59-.047a9.807 9.807 0 0 1-.28 1.907c-.249.992-.705 2.073-1.533 2.902l-.05.05a5.25 5.25 0 0 1-.044.042l-.005.006-.01.01-.037.034h-.972a4.548 4.548 0 0 0-1.874-3.14c1.278-1.275 3.189-1.653 4.215-1.764zm-10.233 4.904a2.517 2.517 0 0 0-.714-1.298 2.519 2.519 0 0 0-1.764-.716c-.663 0-1.29.254-1.765.716a2.518 2.518 0 0 0-.713 1.298H6.777c.046-.287.126-.566.238-.833.017-.03.03-.06.04-.093a3.582 3.582 0 0 1 3.276-2.094l.052.001a3.589 3.589 0 0 1 2.468 1.019.485.485 0 0 0 .104.105 3.572 3.572 0 0 1 .93 1.895h-1.076zm-1.009 0H8.862a1.548 1.548 0 0 1 1.469-1.039c.682 0 1.257.43 1.469 1.039zm3.07 0a4.55 4.55 0 0 0-.045-.28c.279-.465.788-.759 1.336-.759.682 0 1.258.43 1.47 1.039h-2.76zm3.77 0a2.518 2.518 0 0 0-.714-1.298 2.519 2.519 0 0 0-1.765-.716 2.54 2.54 0 0 0-1.689.647 4.543 4.543 0 0 0-.542-.878 3.565 3.565 0 0 1 2.231-.775c.514 0 1.001.107 1.442.297.034.021.07.037.11.049l.094.047c.029.02.06.036.091.048a3.575 3.575 0 0 1 1.817 2.579H18.64zM15.83 4.06a.488.488 0 0 0 .401-.476 1.625 1.625 0 0 1 1.621-1.609c.887 0 1.614.722 1.62 1.609a.488.488 0 0 0 .402.476c.805.145 1.431.766 1.604 1.543-1.057.267-2.2.745-3.138 1.593V4.844a.488.488 0 0 0-.976 0v2.54a4.593 4.593 0 0 0-2.112-.072c-.017-.92-.296-1.772-.656-2.494a2 2 0 0 1 1.234-.758zm-3.256-.481c.577.65 1.704 2.139 1.704 3.823v.128l-.005.097c-.37.168-.716.385-1.029.645a4.54 4.54 0 0 0-2.353-1.014c.001-.07 0-.14-.005-.21.14-1.536 1.152-2.864 1.688-3.47zm-9.933 6.773a.488.488 0 0 0-.272-.358 1.584 1.584 0 0 1-.62-2.333.488.488 0 0 0-.053-.62 1.267 1.267 0 0 1 .007-1.782 1.268 1.268 0 0 1 1.78-.006.488.488 0 0 0 .622.052 1.584 1.584 0 0 1 2.335.62.488.488 0 0 0 .781.14 1.593 1.593 0 0 1 2.23.013c.262.262.42.606.456.965a4.9 4.9 0 0 0-.01.2 4.548 4.548 0 0 0-2.756 1.274 4.605 4.605 0 0 0-.67.82L4.818 7.685a.488.488 0 0 0-.69.69l1.891 1.89c-.11.31-.186.629-.227.954H2.195c.077-.16.181-.307.312-.438a.488.488 0 0 0 .135-.428zm13.531 13.124H8.345a.476.476 0 0 1-.476-.475v-1.085h8.78V23a.476.476 0 0 1-.476.475zm7.852-9.157a6.629 6.629 0 0 1-6.622 6.621H7.118a6.15 6.15 0 0 1-6.142-6.142v-2.605h23.048v2.126z"/>
    <path d="M8.308 19.46h1.024a.488.488 0 0 0 0-.975H8.308a4.826 4.826 0 0 1-4.796-4.261.488.488 0 0 0-.969.113 5.801 5.801 0 0 0 5.765 5.123z"/>
    <path d="M11.283 19.477a.488.488 0 1 0 0-.976.488.488 0 0 0 0 .976z"/>
</symbol><symbol id="icon-sauce" viewBox="0 0 25 25">
    <path d="M23.614 2.847A2.358 2.358 0 0 0 21.3 1a2.37 2.37 0 0 0-1.762.784l-1.89 2.1c-.04-.001-.077-.009-.118-.009-1.262 0-3.106 1.076-5.242 2.322-2.316 1.35-4.941 2.882-7.009 3.07C1.05 9.652 1 14.251 1 14.297v5.178c0 .344.134.667.378.912.244.244.568.379.912.379.693 0 1.26-.54 1.29-1.227l.013-.252c.02-.402.02-.44-.058-.732-.06-.23-.175-.656-.385-1.806-.277-1.534-.054-2.678.684-3.493.723.114 1.406.33 2.007.627 1.314.821 3.82 1.998 6.356 2.347-.865 1.023-1.15 1.996-.776 2.728.332.655 1.124 1.008 2.25 1.008.112 0 .227-.004.345-.01 1.204-.072 2.63-.497 4.016-1.199 2.993-1.517 4.781-3.805 4.072-5.208-.408-.803-1.49-1.14-3.008-.956.323-.845.58-1.646.767-2.392l2.933-2.587c.377-.331.677-.734.892-1.202.204-.456.312-.962.312-1.462 0-.272-.03-.53-.088-.784l-.298-1.319zM3.45 12.617c-1.002.987-1.34 2.42-1.007 4.26.215 1.18.334 1.625.398 1.864.05.189.05.189.034.51l-.013.256a.567.567 0 0 1-.79.496.568.568 0 0 1-.353-.528v-5.177c0-.163.053-3.973 3.602-4.312.213.015 1.232.08 2.64.08 1.799 0 4.23-.107 6.41-.566a.36.36 0 1 0-.149-.704c-2.169.457-4.645.553-6.432.547 1.61-.63 3.302-1.617 4.86-2.525 1.961-1.144 3.813-2.224 4.881-2.224.413 0 .765.1 1.053.298-.017.82-.285 1.666-.762 2.461-.469.368-1.088.692-1.849.962a.36.36 0 0 0 .24.677c.142-.05.272-.105.405-.16-1.639 1.54-3.97 2.373-6.252 2.23-3.383-.209-5.645.3-6.916 1.556zm1.099.048c1.203-.75 3.138-1.05 5.772-.884 2.546.157 5.042-.745 6.853-2.481a7.627 7.627 0 0 0 1.25-1.56 6.084 6.084 0 0 0 .798-2.045c.617 1.38.29 3.942-.947 7.03-.525 1.314-1.433 2.189-2.698 2.602-2.923.957-7.197-.705-9.386-2.071a7.636 7.636 0 0 0-1.642-.591zm15.66-6.014c-.08-.674-.271-1.24-.572-1.686.879-.93 1.235-.917 1.302-.905.1.021.172.19.204.289.17.506-.165 1.311-.934 2.302zM15.8 16.01c1.35-.441 2.345-1.331 2.97-2.64l.07-.011c.167.051.356.142.44.309.307.606-.79 2.013-2.716 2.988-1.927.976-3.71 1.028-4.016.426a.446.446 0 0 1-.034-.091 5.97 5.97 0 0 1 .577-.672c.938.051 1.86-.032 2.71-.309zm5.662-2.138c.445.88-.988 2.84-3.755 4.243-1.3.658-2.625 1.056-3.734 1.122-.991.055-1.687-.162-1.911-.605-.126-.247-.098-.574.052-.944.328.337.868.509 1.545.508.905 0 2.048-.301 3.23-.899 2.285-1.156 3.589-2.856 3.033-3.954-.014-.027-.034-.048-.05-.073.806.006 1.392.212 1.59.602zm1.572-7.758a2.85 2.85 0 0 1-.713.958l-2.213 1.953c.075-.456.122-.889.137-1.293 1.362-1.532 1.88-2.715 1.58-3.613-.181-.543-.503-.715-.741-.764-.512-.105-1.13.24-1.926 1.072a2.27 2.27 0 0 0-.68-.39l1.595-1.774a1.654 1.654 0 0 1 1.228-.545 1.647 1.647 0 0 1 1.612 1.287l.298 1.32a2.884 2.884 0 0 1-.177 1.788z"/>
    <path d="M4.234 20.406a.36.36 0 0 0-.332.224c-.175.428-.746 1.858-.746 2.292A1.08 1.08 0 0 0 4.234 24a1.08 1.08 0 0 0 1.079-1.078c0-.434-.571-1.864-.746-2.292a.36.36 0 0 0-.333-.224zm0 2.875a.36.36 0 0 1-.359-.359c.002-.137.158-.62.36-1.165.2.545.357 1.028.359 1.165a.36.36 0 0 1-.36.36zm13.124-10.668a.355.355 0 0 0 .356-.005.36.36 0 0 0 .132-.136c.133-.24.26-.508.377-.796a.36.36 0 1 0-.665-.272 6.868 6.868 0 0 1-.34.72.357.357 0 0 0 .14.489zm.84-1.923a.36.36 0 0 0 .443-.25c.228-.821.32-1.456.324-1.483a.359.359 0 1 0-.711-.101c-.001.006-.09.618-.306 1.392a.36.36 0 0 0 .25.442z"/>
</symbol><symbol id="icon-side-dish" viewBox="0 0 25 25">
    <path d="M24.552 10.177a1.72 1.72 0 0 0-1.269-.561h-.395a3.838 3.838 0 0 0-.79-2.849c-.418-.535-.865-.82-1.368-.874a1.685 1.685 0 0 0-.716.081 3.859 3.859 0 0 0-2.273-2.737c-.625-.263-1.155-.295-1.62-.097-.78.332-1.103 1.175-1.478 2.152-.077.2-.156.4-.237.598a1.673 1.673 0 0 0-.631.067 3.896 3.896 0 0 0-.272-.788 3.838 3.838 0 0 0-2.184-1.993c-.639-.23-1.17-.235-1.623-.013-.761.372-1.041 1.23-1.366 2.226-.068.21-.138.42-.211.63a1.583 1.583 0 0 0-.47-.126c-.3-.032-.58.02-.854.131a3.809 3.809 0 0 0-2.647-1.648c-.672-.096-1.193.009-1.591.318-.67.52-.768 1.418-.883 2.458-.027.247-.055.503-.092.762-.036.259-.08.512-.123.757-.061.349-.118.68-.15.995a1.718 1.718 0 0 0-1.3 1.834 12.504 12.504 0 0 0 2.435 6.307 12.585 12.585 0 0 0 5.243 4.085 7.834 7.834 0 0 0 3.024.594h3.58c1.059 0 2.076-.2 3.024-.594a12.586 12.586 0 0 0 5.243-4.085 12.503 12.503 0 0 0 2.435-6.307 1.729 1.729 0 0 0-.44-1.324zM20.6 7.113c.19.02.393.234.53.41a2.63 2.63 0 0 1 .516 2.093h-4.548c.22-.198.51-.41.808-.63.209-.152.424-.31.646-.482.221-.174.426-.345.625-.51.543-.454 1.058-.883 1.387-.883.012 0 .024 0 .036.002zm-7.719.881c.544-.454 1.059-.883 1.387-.883a.34.34 0 0 1 .037.002c.19.02.393.234.53.41.481.615.644 1.379.515 2.093h-4.548c.22-.198.51-.41.808-.63.209-.152.425-.31.646-.482.221-.174.426-.345.625-.51zm2.907-2.262c.264-.687.513-1.335.814-1.463a.407.407 0 0 1 .16-.029c.16 0 .352.065.503.128a2.64 2.64 0 0 1 1.609 2.288c-.158.125-.319.258-.483.396-.191.159-.389.324-.595.485-.206.16-.414.313-.614.46-.219.16-.429.313-.623.468a3.837 3.837 0 0 0-.757-1.698 3.257 3.257 0 0 0-.294-.33c.102-.243.193-.478.28-.705zm-6.55.8c.096-.264.18-.518.26-.763.227-.7.442-1.36.737-1.504a.436.436 0 0 1 .19-.037c.154 0 .333.05.477.103a2.638 2.638 0 0 1 1.731 2.281 24.07 24.07 0 0 0-.538.44c-.191.159-.389.324-.595.485-.206.16-.413.313-.614.46-.396.29-.767.562-1.06.855a3.83 3.83 0 0 0-.72-1.964c.044-.116.089-.234.133-.355zm-1.72.581c.19.02.394.234.531.41a2.62 2.62 0 0 1 .517 2.093h-4.55c.22-.198.51-.41.808-.63.209-.152.424-.31.646-.482.221-.173.426-.345.625-.51.544-.453 1.059-.883 1.387-.883a.23.23 0 0 1 .037.002zm-4.72.973c.039-.278.068-.544.096-.8.08-.731.156-1.422.415-1.623.092-.07.237-.094.387-.094a2.619 2.619 0 0 1 2.016 1.048l.046.065c-.147.118-.296.242-.449.37-.191.159-.389.324-.595.485-.206.16-.413.313-.614.46-.661.483-1.25.915-1.531 1.483.028-.19.063-.392.099-.598.044-.255.09-.518.13-.796zm20.973 3.299a11.293 11.293 0 0 1-6.928 9.375 6.61 6.61 0 0 1-2.553.5h-3.58a6.612 6.612 0 0 1-2.553-.5 11.293 11.293 0 0 1-6.928-9.375.492.492 0 0 1 .488-.542h21.566a.483.483 0 0 1 .361.16c.095.104.14.24.127.382z"/>
    <path d="M6.22 13.513a.613.613 0 1 1 .001-1.227h1.92a.614.614 0 0 1 0 1.227h-1.92zm-2.089 0h-.408a.614.614 0 1 1 0-1.227h.408a.614.614 0 0 1 0 1.227z"/>
</symbol><symbol id="icon-soup" viewBox="0 0 25 25">
    <path d="M1 12.92v2.183a6.852 6.852 0 0 0 4.157 6.306l.84.36v1.782a.45.45 0 0 0 .45.449h2.499a.45.45 0 0 0 0-.898h-2.05v-1.18h8.12v1.18h-2.118a.45.45 0 0 0 0 .898h2.567a.45.45 0 0 0 .45-.45v-1.78l.867-.368a6.85 6.85 0 0 0 4.18-6.315V12.92a.45.45 0 0 0-.45-.449H19.45l.26-.264A4.077 4.077 0 0 1 22.595 11a1.3 1.3 0 0 0 1.299-1.299 1.3 1.3 0 0 0-1.299-1.299 8.519 8.519 0 0 0-5.838 2.305l-1.884 1.764H13.69c.421-.513.673-1.176.673-1.803a.45.45 0 0 0-.449-.45h-.95c-.84 0-1.55.52-1.983 1.21-.432-.69-1.143-1.21-1.983-1.21h-.95a.45.45 0 0 0-.449.45c0 .627.252 1.29.673 1.803H1.45a.45.45 0 0 0-.449.45zm15.43 7.655l-1.056.448H6.539l-1.028-.44a5.955 5.955 0 0 1-3.597-5.047h18.133a5.95 5.95 0 0 1-3.616 5.039zm.941-9.211A7.62 7.62 0 0 1 22.595 9.3a.401.401 0 0 1 0 .801c-1.316 0-2.6.538-3.525 1.475l-.882.895h-2l1.183-1.107zm-4.407-.247h.44c-.182.697-.762 1.354-1.473 1.354h-.44c.182-.697.762-1.354 1.473-1.354zm-4.406 0h.44c.711 0 1.29.657 1.474 1.354h-.441c-.711 0-1.29-.657-1.473-1.354zm-6.66 2.252h18.166v1.268H1.898V13.37zm8.654-3.971a.454.454 0 0 0 .636 0 3.15 3.15 0 0 0 0-4.451 2.251 2.251 0 0 1 0-3.18.45.45 0 0 0-.636-.635 3.15 3.15 0 0 0 0 4.45 2.251 2.251 0 0 1 0 3.18.45.45 0 0 0 0 .636zM8.537 5.642a.45.45 0 0 0-.636 0A2.583 2.583 0 0 0 7.14 7.48c0 .695.27 1.348.761 1.839a.45.45 0 0 0 .635-.635 1.69 1.69 0 0 1-.498-1.204c0-.454.177-.881.499-1.203a.45.45 0 0 0 0-.635zm4.603.158a.454.454 0 0 0 .636 0 2.008 2.008 0 0 0 0-2.836.45.45 0 0 0-.636.635 1.108 1.108 0 0 1 0 1.566.45.45 0 0 0 0 .635z"/>
    <path d="M11.297 23.278a.454.454 0 0 0-.623-.124.453.453 0 0 0-.124.622c.135.204.42.26.623.125a.454.454 0 0 0 .124-.623z"/>
</symbol><symbol id="icon-special-drinks" viewBox="0 0 35 35">
    <g clip-path="url(#a)">
        <path d="M8.257 17.879v.024l2.003 16.03c.073.611.594 1.067 1.213 1.067h13.026a1.221 1.221 0 0 0 1.213-1.066l1.872-14.98v-.009L28.97 7.881c.04-.35-.066-.7-.294-.96a1.227 1.227 0 0 0-.92-.408h-6.09l.628-4.07h5.463a1.22 1.22 0 0 0 1.22-1.222A1.22 1.22 0 0 0 27.757 0h-6.514c-.602 0-1.115.44-1.205 1.034l-.846 5.48H8.216c-.35 0-.684.146-.912.414a1.22 1.22 0 0 0-.293.961l1.246 9.99zM21.29 8.956h5.08l-1.09 8.71c-2.581.18-4.258.18-5.35.115l1.36-8.825zm-1.734 11.243c.562.04 1.189.065 1.905.065 1.018 0 2.19-.04 3.517-.13l-1.555 12.432H12.547l-1.71-13.662c4.617-.3 5.447.27 5.463.277.22.22.505.4.855.546l-.382 2.475a1.222 1.222 0 0 0 1.017 1.392c.066.008.123.016.188.016.594 0 1.115-.431 1.205-1.034l.374-2.377zm-.74-11.243l-1.255 8.141c-.863-.513-2.646-.92-7.026-.619L9.6 8.956h9.216z"/>
    </g>
    
</symbol><symbol id="icon-special-food" viewBox="0 0 35 35">
    <g clip-path="url(#a)" fill-rule="evenodd" clip-rule="evenodd">
        <path d="M7.887 1.175A4.01 4.01 0 0 1 11.633.104c.304.07.541.308.612.612a4.01 4.01 0 0 1-4.817 4.816.818.818 0 0 1-.612-.612 4.01 4.01 0 0 1 1.071-3.745zM9.044 2.33a2.368 2.368 0 0 1 1.67-.696 2.368 2.368 0 0 1-.697 1.67c-.46.46-1.064.693-1.67.696a2.368 2.368 0 0 1 .697-1.67z"/>
        <path d="M2.127 2.355c.216 0 .424.086.578.24l3.147 3.147a.825.825 0 0 1 .025.025l3.148 3.148c.32.32.32.837 0 1.156a5.287 5.287 0 1 1-7.477-7.476.818.818 0 0 1 .579-.24zm.065 2.04L3.707 5.91l-2.07.554a3.648 3.648 0 0 1 .555-2.07zm-.132 3.65A3.65 3.65 0 0 0 3.576 9.56l.554-2.07-2.07.554zm3.095 1.937l.555-2.07 1.516 1.516c-.63.395-1.353.58-2.07.554z"/>
        <path d="M19.637 6.007a1.682 1.682 0 0 1 1.682-1.665h11.433a.818.818 0 1 0 0-1.635H21.319a3.317 3.317 0 0 0-3.317 3.317v1.041a6.312 6.312 0 0 0 6.312 6.313h.133a2.047 2.047 0 0 1 1.476 3.463H17.03a7.99 7.99 0 0 0 1.147-2.254 2.376 2.376 0 0 0-.334-2.12l.058-.092a.818.818 0 1 0-1.383-.873l-.03.047a2.38 2.38 0 0 0-2.84 1.578 8.251 8.251 0 0 1-1.701 2.967l-.668.747H8.818c.25-.367.42-.771.487-1.18.1-.6-.013-1.283-.512-1.782-.5-.5-1.182-.613-1.782-.513-.602.1-1.195.419-1.672.896-.476.476-.795 1.069-.895 1.671a2.28 2.28 0 0 0 .026.908H.818a.818.818 0 0 0-.806.956c1.046 6.11 5.22 11.15 10.816 13.413v2.904c0 .452.366.818.818.818h11.64a.818.818 0 0 0 .817-.818v-2.768c.311-.133.636-.299.966-.485.87-.494 1.836-1.17 2.757-1.89a33.275 33.275 0 0 0 2.548-2.201c.695-.67 1.298-1.33 1.603-1.829a17.617 17.617 0 0 0 2.943-7.144.818.818 0 0 0-.47-.883 8.143 8.143 0 0 0-7.662-10.907h-7.151zm13.079 10.834c.372-.82.58-1.73.58-2.69a6.48 6.48 0 0 0-.714-2.968 5.54 5.54 0 0 1-4.488 3.733 3.716 3.716 0 0 1-.248 1.925h4.87zm-6.47 1.636H1.817a16.106 16.106 0 0 0 10.586 11.57h10.262l.004.001h.116c.089-.008.24-.039.463-.121a7.083 7.083 0 0 0 1.014-.489c.776-.44 1.673-1.065 2.558-1.755a31.637 31.637 0 0 0 2.418-2.09c.706-.681 1.175-1.22 1.35-1.516a.83.83 0 0 1 .034-.053 15.99 15.99 0 0 0 2.492-5.547h-6.868zM14.843 16.84a6.356 6.356 0 0 0 1.777-2.755.744.744 0 1 0-1.416-.457 9.887 9.887 0 0 1-1.746 3.212h1.385zM31.23 9.435a3.898 3.898 0 0 1-3.754 3.895 3.701 3.701 0 0 0-1.207-1.106 4.763 4.763 0 0 0 .18-4.582h.34c1.717 0 3.279.665 4.442 1.751a.83.83 0 0 0-.001.042zm-6.62 2.311a3.118 3.118 0 0 0-.134-4.104h-4.803a4.678 4.678 0 0 0 4.642 4.1h.133c.054 0 .108.002.161.004zm-12.146 21.55v-1.613h10.005v1.613H12.463zM7.28 14.98c-.23.038-.52.176-.784.439s-.4.555-.44.784c-.038.231.028.327.057.357.029.029.125.094.357.056.229-.039.52-.176.784-.44.263-.263.4-.554.438-.783.039-.231-.026-.328-.056-.357-.029-.03-.125-.094-.356-.056z"/>
        <path d="M13.608 3.419a.818.818 0 0 1 .865 0 4.01 4.01 0 0 1 1.891 3.406 4.01 4.01 0 0 1-1.89 3.405.818.818 0 0 1-.866 0 4.01 4.01 0 0 1-1.891-3.405 4.01 4.01 0 0 1 1.89-3.406zm-.256 3.406c0-.652.262-1.243.688-1.673.427.43.689 1.021.689 1.673 0 .652-.262 1.242-.688 1.673a2.368 2.368 0 0 1-.689-1.673z"/>
    </g>
    
</symbol><symbol id="icon-spring" viewBox="0 0 36 36">
    <g clip-path="url(#a)">
        <path fill-rule="evenodd" clip-rule="evenodd" d="M0 18.017l.683.727a10.905 10.905 0 0 0 7.315 3.41 10.905 10.905 0 0 0-2.747 7.59l.033.996.997.031c2.784.087 5.5-.908 7.566-2.745a10.905 10.905 0 0 0 3.41 7.291l.726.683.728-.682a10.906 10.906 0 0 0 3.424-7.308 10.905 10.905 0 0 0 7.584 2.761l.997-.031.033-.997c.092-2.8-.91-5.531-2.762-7.606a10.905 10.905 0 0 0 7.331-3.426l.682-.728-.683-.727a10.905 10.905 0 0 0-7.315-3.41 10.906 10.906 0 0 0 2.747-7.59l-.033-.996-.997-.03c-2.784-.087-5.5.907-7.566 2.744A10.905 10.905 0 0 0 18.744.683L18.017 0l-.728.682a10.906 10.906 0 0 0-3.424 7.308A10.905 10.905 0 0 0 6.28 5.23l-.997.03-.033.997c-.092 2.8.91 5.532 2.763 7.607a10.905 10.905 0 0 0-7.332 3.425L0 18.017zm14.484-5.74a8.741 8.741 0 0 0-7.077-4.89 8.74 8.74 0 0 0 4.996 7.143c.121.045.242.093.363.142l1.936.8a4.14 4.14 0 0 1 .766-.779l-.796-1.927c-.067-.162-.13-.325-.188-.489zm-2.896 4.22a8.74 8.74 0 0 0-8.584 1.517 8.741 8.741 0 0 0 8.462 1.547c.158-.075.318-.146.48-.213l1.971-.819a4.167 4.167 0 0 1-.013-1.064l-1.958-.813c-.12-.05-.24-.102-.358-.156zm.695 5.03a8.741 8.741 0 0 0-4.876 7.087 8.742 8.742 0 0 0 7.029-4.793c.07-.199.145-.397.226-.593l.835-2.01a4.136 4.136 0 0 1-.726-.71l-1.999.83c-.162.067-.325.13-.489.19zm5.217.505l-.836 2.024c-.082.197-.168.39-.26.58a8.742 8.742 0 0 0 1.582 8.36 8.741 8.741 0 0 0 1.563-8.458 11.139 11.139 0 0 1-.213-.481L18.5 22.03a4.156 4.156 0 0 1-1 .001zm2.994-.817l.834 2.019c.067.163.13.326.189.49a8.741 8.741 0 0 0 7.076 4.89A8.74 8.74 0 0 0 23.6 21.47a11.061 11.061 0 0 1-.365-.143l-2.011-.831c-.213.268-.458.51-.73.718zm1.575-2.692l1.985.825c.121.05.24.103.36.157a8.74 8.74 0 0 0 8.582-1.52 8.741 8.741 0 0 0-8.462-1.546c-.157.075-.317.146-.48.213l-1.972.82a4.166 4.166 0 0 1-.014 1.051zm1.159-3.86l-1.946.807a4.139 4.139 0 0 0-.748-.763l.804-1.934c.081-.197.157-.395.226-.594a8.742 8.742 0 0 1 7.03-4.792 8.741 8.741 0 0 1-4.877 7.086c-.164.059-.327.122-.49.19zm-3.632-3.3c-.092.19-.178.383-.26.58l-.794 1.922a4.158 4.158 0 0 0-1.085-.002l-.793-1.92a11.001 11.001 0 0 0-.212-.48 8.741 8.741 0 0 1 1.562-8.459 8.742 8.742 0 0 1 1.582 8.36zm-1.604 4.593a1.99 1.99 0 1 0 0 3.979 1.99 1.99 0 0 0 0-3.98z"/>
    </g>
    
</symbol><symbol id="icon-sun" viewBox="0 0 36 36">
    <g clip-path="url(#a)">
        <path d="M9.514 7.394l-2.12-2.122a1.5 1.5 0 1 0-2.122 2.122l2.122 2.12a1.493 1.493 0 0 0 1.06.44 1.5 1.5 0 0 0 1.06-2.56zM4.5 16.5h-3a1.5 1.5 0 0 0 0 3h3a1.5 1.5 0 0 0 0-3zm5.014 9.985a1.5 1.5 0 0 0-2.12 0l-2.122 2.122a1.5 1.5 0 1 0 2.122 2.12l2.12-2.12a1.5 1.5 0 0 0 0-2.122zM18 30a1.5 1.5 0 0 0-1.5 1.5v3a1.5 1.5 0 0 0 3 0v-3A1.5 1.5 0 0 0 18 30zm12.727-1.393l-2.12-2.122a1.5 1.5 0 1 0-2.122 2.122l2.122 2.12c.292.294.676.44 1.06.44s.768-.146 1.06-.44a1.5 1.5 0 0 0 0-2.12zM34.5 16.5h-3a1.5 1.5 0 0 0 0 3h3a1.5 1.5 0 0 0 0-3zM30.727 5.273a1.5 1.5 0 0 0-2.12 0l-2.122 2.12a1.5 1.5 0 1 0 2.122 2.122l2.12-2.122a1.5 1.5 0 0 0 0-2.12zM18 0a1.5 1.5 0 0 0-1.5 1.5v3a1.5 1.5 0 0 0 3 0v-3A1.5 1.5 0 0 0 18 0zm0 8.25c-5.376 0-9.75 4.374-9.75 9.75s4.374 9.75 9.75 9.75 9.75-4.374 9.75-9.75S23.376 8.25 18 8.25zm0 16.5A6.758 6.758 0 0 1 11.25 18 6.758 6.758 0 0 1 18 11.25 6.758 6.758 0 0 1 24.75 18 6.758 6.758 0 0 1 18 24.75z"/>
    </g>
    
</symbol><symbol id="icon-sushi" viewBox="0 0 25 25">
    <g clip-path="url(#a)">
        <path d="M21.875 11.719a1.171 1.171 0 0 0-1.172 1.172.39.39 0 0 0 .781 0 .39.39 0 1 1 .782 0 .39.39 0 0 0 .78 0 1.172 1.172 0 0 0-1.171-1.172zm-2.344 4.687a.39.39 0 0 0 .39-.39.39.39 0 1 1 .782 0 .39.39 0 0 0 .781 0 1.172 1.172 0 0 0-2.343 0 .39.39 0 0 0 .39.39zm-2.062.39a.758.758 0 0 1 .062.65.391.391 0 0 0 .735.265 1.524 1.524 0 0 0-.023-1.11 1.525 1.525 0 0 0 0-1.171 1.525 1.525 0 0 0 0-1.172 1.524 1.524 0 0 0 0-1.172c.077-.186.116-.385.116-.586a.39.39 0 0 0-.78 0 .758.758 0 0 1-.11.39.392.392 0 0 0 0 .391.754.754 0 0 1 0 .781.391.391 0 0 0 0 .391.754.754 0 0 1 0 .781.391.391 0 0 0 0 .391.754.754 0 0 1 0 .781.392.392 0 0 0 0 .39z"/>
        <path d="M25 7.031a1.563 1.563 0 0 0-1.563-1.562h-.136a1.562 1.562 0 0 0-1.492-.328 1.492 1.492 0 0 0-1.243-.454 1.492 1.492 0 0 0-1.171-.39 1.594 1.594 0 0 0-1.036-.39 1.54 1.54 0 0 0-.78.214 1.562 1.562 0 0 0-1.817.184 1.492 1.492 0 0 0-1.172.39 1.5 1.5 0 0 0-1.242.453 1.563 1.563 0 0 0-1.493.329l-.136-.008a1.562 1.562 0 0 0-1.563 1.562v2.344a.39.39 0 0 0 .781 0V8.309a.782.782 0 0 1 .391.675.39.39 0 0 0 .39.391.781.781 0 0 1 .657.363.39.39 0 0 0 .523.133.782.782 0 0 1 1.13.473.41.41 0 0 0 .202.246.39.39 0 0 0 .32 0 .782.782 0 0 1 .891.226.39.39 0 0 0 .391.133.749.749 0 0 1 .184-.011.78.78 0 0 1 .656.363.39.39 0 0 0 .523.133.746.746 0 0 1 .782 0 .39.39 0 0 0 .523-.133.782.782 0 0 1 .64-.364c.064.002.127.01.188.028a.39.39 0 0 0 .39-.133.782.782 0 0 1 .891-.227.39.39 0 0 0 .32 0 .41.41 0 0 0 .204-.246.782.782 0 0 1 1.133-.488.39.39 0 0 0 .523-.133.781.781 0 0 1 .648-.363.39.39 0 0 0 .391-.39.782.782 0 0 1 .39-.676v1.847a.781.781 0 0 1-.202.52.39.39 0 0 0 0 .523.781.781 0 0 1 0 1.04.39.39 0 0 0 0 .523.781.781 0 0 1 0 1.039.39.39 0 0 0 0 .523.781.781 0 0 1 0 1.04.39.39 0 0 0 0 .523.781.781 0 0 1-.578 1.3.748.748 0 0 1-.188-.027.39.39 0 0 0-.39.133.782.782 0 0 1-.981.18.39.39 0 0 0-.524.133.781.781 0 0 1-.652.363.748.748 0 0 1-.187-.028.392.392 0 0 0-.391.133.78.78 0 0 1-.594.285.742.742 0 0 1-.187-.027.39.39 0 0 0-.39.133.781.781 0 0 1-1.118.082.39.39 0 0 0-.523 0 .782.782 0 0 1-1.118-.082.39.39 0 0 0-.55-.05.39.39 0 0 0-.051.55 1.564 1.564 0 0 0 1.203.566c.275 0 .545-.074.781-.215.236.141.506.215.781.215.381 0 .75-.138 1.035-.39a1.488 1.488 0 0 0 1.172-.391 1.492 1.492 0 0 0 1.243-.453 1.562 1.562 0 0 0 1.492-.328h.137A1.563 1.563 0 0 0 25 16.406c0-.275-.074-.545-.215-.781a1.528 1.528 0 0 0 0-1.563 1.528 1.528 0 0 0 0-1.562 1.528 1.528 0 0 0 0-1.563c.14-.236.215-.506.215-.78V7.03zm-.781.446a1.563 1.563 0 0 0-1.133 1.171 1.563 1.563 0 0 0-.754.422 1.507 1.507 0 0 0-.457-.086 1.563 1.563 0 0 0-1.355.782 1.563 1.563 0 0 0-1.243.39 1.5 1.5 0 0 0-1.242.453 1.52 1.52 0 0 0-.914 0 1.492 1.492 0 0 0-1.242-.453 1.563 1.563 0 0 0-1.242-.39 1.562 1.562 0 0 0-1.813-.711 1.562 1.562 0 0 0-.754-.422 1.562 1.562 0 0 0-1.133-1.172v-.43a.781.781 0 0 1 .782-.781c.063.001.126.01.187.027a.39.39 0 0 0 .39-.132.781.781 0 0 1 .985-.18.39.39 0 0 0 .524-.133.781.781 0 0 1 .648-.363c.064 0 .127.01.188.027a.39.39 0 0 0 .39-.133.782.782 0 0 1 .594-.285c.063.001.126.01.188.027a.39.39 0 0 0 .39-.132.782.782 0 0 1 1.117-.082.39.39 0 0 0 .524 0 .78.78 0 0 1 1.117.082.391.391 0 0 0 .39.132.746.746 0 0 1 .18-.027.781.781 0 0 1 .598.285.39.39 0 0 0 .39.133.747.747 0 0 1 .184-.027.781.781 0 0 1 .656.363.39.39 0 0 0 .524.133.781.781 0 0 1 .98.18.39.39 0 0 0 .39.132.746.746 0 0 1 .184-.027.781.781 0 0 1 .782.781v.446z"/>
        <path d="M22.39 7.05l-4.687-1.562a.39.39 0 0 0-.258 0l-4.297 1.563a.39.39 0 0 0-.178.6.39.39 0 0 0 .198.138l5.078 1.563a.359.359 0 0 0 .113.023c.05 0 .1-.009.145-.027l3.906-1.563a.39.39 0 0 0 0-.734h-.02zm-4.03 1.52l-3.837-1.172 3.055-1.125 3.547 1.172-2.766 1.125zm-2.344 4.32h.78v.782h-.78v-.781zm6.64 1.563h.782v.781h-.782v-.78zm-3.515-2.734h.78v.781h-.78v-.781zm-3.907 4.297h.782v.78h-.782v-.78zM3.906 17.969a1.172 1.172 0 0 0-2.344 0 .39.39 0 1 0 .782 0 .39.39 0 0 1 .781 0 .39.39 0 1 0 .781 0zm1.953 2.343a1.172 1.172 0 0 0-2.343 0 .39.39 0 0 0 .78 0 .39.39 0 1 1 .782 0 .39.39 0 0 0 .781 0zm5.86.391a.391.391 0 0 0-.39.39.39.39 0 1 1-.782 0 .39.39 0 0 0-.781 0 1.172 1.172 0 0 0 2.343 0 .39.39 0 0 0-.39-.39zm-3.906-3.125a.39.39 0 0 0-.391.39.758.758 0 0 1-.11.391.391.391 0 0 0 0 .391.754.754 0 0 1 0 .781.39.39 0 0 0 0 .39.754.754 0 0 1 0 .782.39.39 0 0 0 0 .39.754.754 0 0 1 0 .782.39.39 0 0 0 0 .39.758.758 0 0 1 .063.649.39.39 0 0 0 .734.266 1.523 1.523 0 0 0-.023-1.11 1.524 1.524 0 0 0 0-1.172 1.523 1.523 0 0 0 0-1.171 1.523 1.523 0 0 0 0-1.172c.077-.186.117-.385.117-.586a.39.39 0 0 0-.39-.39z"/>
        <path d="M13.281 10.938h-.136a1.563 1.563 0 0 0-1.493-.329 1.492 1.492 0 0 0-1.242-.453 1.493 1.493 0 0 0-1.172-.39 1.563 1.563 0 0 0-1.816-.176 1.562 1.562 0 0 0-1.817.183 1.492 1.492 0 0 0-1.171.391 1.492 1.492 0 0 0-1.243.453 1.562 1.562 0 0 0-1.492.32h-.137A1.562 1.562 0 0 0 0 12.5v3.125c0 .275.074.545.215.781a1.527 1.527 0 0 0 0 1.563 1.527 1.527 0 0 0 0 1.562 1.527 1.527 0 0 0 0 1.563c-.14.236-.215.506-.215.781a1.563 1.563 0 0 0 1.563 1.563h.136a1.563 1.563 0 0 0 1.492.328 1.493 1.493 0 0 0 1.243.453 1.492 1.492 0 0 0 1.171.39 1.563 1.563 0 0 0 1.817.184c.237.138.507.21.781.207.381 0 .75-.139 1.035-.39a1.492 1.492 0 0 0 1.172-.391 1.492 1.492 0 0 0 1.242-.453 1.562 1.562 0 0 0 1.493-.328h.136a1.563 1.563 0 0 0 1.563-1.563c0-.275-.074-.545-.215-.781a1.528 1.528 0 0 0 0-1.563 1.528 1.528 0 0 0 0-1.562 1.528 1.528 0 0 0 0-1.563c.14-.236.215-.506.215-.781V12.5a1.562 1.562 0 0 0-1.563-1.563zm.781 3.906v.781a.781.781 0 0 1-.203.52.39.39 0 0 0 0 .523.78.78 0 0 1 0 1.039.39.39 0 0 0 0 .523.78.78 0 0 1 0 1.04.39.39 0 0 0 0 .523.78.78 0 0 1 0 1.039.39.39 0 0 0 0 .523.78.78 0 0 1-.578 1.301.748.748 0 0 1-.187-.027.391.391 0 0 0-.39.133.781.781 0 0 1-.981.18.391.391 0 0 0-.524.132.781.781 0 0 1-.652.363.748.748 0 0 1-.188-.027.39.39 0 0 0-.39.133.782.782 0 0 1-.594.285.748.748 0 0 1-.188-.027.39.39 0 0 0-.39.133.782.782 0 0 1-1.117.082.391.391 0 0 0-.524 0 .78.78 0 0 1-1.117-.082.39.39 0 0 0-.39-.133.743.743 0 0 1-.18.027.78.78 0 0 1-.598-.285.39.39 0 0 0-.39-.133.745.745 0 0 1-.184.027.78.78 0 0 1-.656-.363.39.39 0 0 0-.516-.133.782.782 0 0 1-.98-.18.39.39 0 0 0-.391-.132.746.746 0 0 1-.192.027.782.782 0 0 1-.578-1.3.39.39 0 0 0 0-.524.781.781 0 0 1 0-1.039.39.39 0 0 0 0-.523.781.781 0 0 1 0-1.04.39.39 0 0 0 0-.523.781.781 0 0 1 0-1.039.39.39 0 0 0 0-.523.781.781 0 0 1-.203-.52v-1.848a.78.78 0 0 1 .39.676.39.39 0 0 0 .391.39.78.78 0 0 1 .657.364.39.39 0 0 0 .515.133.78.78 0 0 1 1.13.473.41.41 0 0 0 .202.246.391.391 0 0 0 .32 0 .781.781 0 0 1 .891.226.39.39 0 0 0 .391.133.745.745 0 0 1 .191-.012.78.78 0 0 1 .657.364.39.39 0 0 0 .523.132.745.745 0 0 1 .781 0 .39.39 0 0 0 .524-.133.78.78 0 0 1 .64-.363c.064.001.127.01.188.028a.392.392 0 0 0 .39-.133.781.781 0 0 1 .891-.227.39.39 0 0 0 .32 0 .409.409 0 0 0 .204-.246.78.78 0 0 1 1.132-.488.39.39 0 0 0 .524-.133.782.782 0 0 1 .648-.363.39.39 0 0 0 .39-.39.781.781 0 0 1 .392-.677v1.067zm0-1.899a1.563 1.563 0 0 0-1.132 1.172 1.562 1.562 0 0 0-.754.422 1.51 1.51 0 0 0-.457-.086 1.562 1.562 0 0 0-1.356.781 1.562 1.562 0 0 0-1.242.391 1.5 1.5 0 0 0-1.242.453 1.52 1.52 0 0 0-.914 0 1.492 1.492 0 0 0-1.242-.453 1.538 1.538 0 0 0-1.243-.39 1.562 1.562 0 0 0-1.812-.712 1.562 1.562 0 0 0-.754-.421A1.563 1.563 0 0 0 .781 12.93v-.43a.781.781 0 0 1 .781-.781c.064 0 .127.01.188.027a.392.392 0 0 0 .39-.133.781.781 0 0 1 .985-.18.39.39 0 0 0 .523-.132.78.78 0 0 1 .649-.364c.063.002.126.01.187.028a.39.39 0 0 0 .391-.133.782.782 0 0 1 .594-.285c.063.001.126.01.187.027a.39.39 0 0 0 .39-.133.782.782 0 0 1 1.118-.082.39.39 0 0 0 .524 0 .78.78 0 0 1 1.117.082.39.39 0 0 0 .39.133.743.743 0 0 1 .18-.027.78.78 0 0 1 .598.285.39.39 0 0 0 .39.133.74.74 0 0 1 .184-.027.781.781 0 0 1 .656.363.39.39 0 0 0 .524.133.781.781 0 0 1 .98.18.391.391 0 0 0 .39.132.744.744 0 0 1 .184-.027.781.781 0 0 1 .781.781v.445z"/>
        <path d="M12.234 12.52l-4.687-1.563a.39.39 0 0 0-.258 0L2.992 12.52a.39.39 0 0 0 0 .742l5.078 1.562a.359.359 0 0 0 .133.02c.05 0 .099-.009.145-.028l3.906-1.562a.39.39 0 0 0-.02-.734zm-4.03 1.519l-3.837-1.172 3.055-1.125 3.547 1.172-2.766 1.125zm3.124 2.758h.781v.781h-.78v-.781zm-5.86.781h.782v.781h-.781v-.78zm0 4.688h.782v.78h-.781v-.78zm4.298-3.907h.78v.782h-.78v-.782zm-7.813 1.953h.781v.782h-.78v-.782zM12.11 18.75h.782v.781h-.782v-.781z"/>
    </g>
    
</symbol><symbol id="icon-tea" viewBox="0 0 25 25">
    <path d="M6.364 2.143a.615.615 0 0 1 .866.078 1.897 1.897 0 0 1 0 2.429.666.666 0 0 0 0 .853.615.615 0 1 1-.945.787 1.897 1.897 0 0 1 0-2.428.666.666 0 0 0 0-.853.615.615 0 0 1 .079-.866zm-2.871 1.23a.615.615 0 0 1 .866.079 1.897 1.897 0 0 1 0 2.428.666.666 0 0 0 0 .853.615.615 0 1 1-.945.788 1.897 1.897 0 0 1 0-2.428.666.666 0 0 0 0-.853.615.615 0 0 1 .079-.867z"/>
    <path fill-rule="evenodd" clip-rule="evenodd" d="M11.064 7.62a1.846 1.846 0 1 1 3.51.798 7.52 7.52 0 0 1 2.002.76 4.307 4.307 0 1 1 3.848 7.7 7.507 7.507 0 0 1-.494 1.816 2.902 2.902 0 0 1-.346.615h2.8c.34 0 .616.275.616.615v.82A2.256 2.256 0 0 1 20.744 23H4.256A2.256 2.256 0 0 1 2 20.744v-.82c0-.34.275-.615.615-.615h3.62a2.899 2.899 0 0 1-.345-.615 7.517 7.517 0 0 1-.369-1.147 3.896 3.896 0 0 1-3.48-3.874V9.67c0-.34.275-.615.615-.615h2.051c.31 0 .572.23.61.539l.276 2.203a.615.615 0 0 0 .576.538 7.602 7.602 0 0 1 5.077-3.917 1.838 1.838 0 0 1-.182-.799zm1.846-.616a.615.615 0 1 0 0 1.23.615.615 0 0 0 0-1.23zm0 2.461a6.33 6.33 0 0 0-3.76 1.23h7.52a6.367 6.367 0 0 0-.433-.29 6.328 6.328 0 0 0-3.327-.94zm7.578 5.955a7.572 7.572 0 0 0-2.71-5.419 3.076 3.076 0 0 1 2.71 5.419zm-1.243.94a6.368 6.368 0 0 0-1.311-4.434h-6.87v1.106l.957.638a.615.615 0 0 1 .274.512v2.87c0 .34-.275.616-.615.616H9.219a.615.615 0 0 1-.615-.615v-2.871c0-.206.102-.398.273-.512l.957-.638v-1.106H7.887c-.304.39-.563.818-.77 1.274l-.004.009a6.334 6.334 0 0 0-.086 5.016c.27.653.94 1.084 1.683 1.084h8.4c.744 0 1.414-.431 1.683-1.084a6.277 6.277 0 0 0 .452-1.865zM4.372 11.95a1.846 1.846 0 0 0 1.315 1.543 7.582 7.582 0 0 0-.352 2.777 2.666 2.666 0 0 1-2.064-2.597v-3.388h.893l.208 1.665zm6.077 2.15l-.615.41v1.928h1.23V14.51l-.615-.41zM3.23 20.745v-.205h18.54v.205c0 .567-.46 1.026-1.026 1.026H4.256a1.025 1.025 0 0 1-1.026-1.026z"/>
</symbol><symbol id="icon-time" viewBox="0 0 20 20">
    <path d="M10 1.6a8.4 8.4 0 1 1 0 16.8 8.4 8.4 0 1 1 0-16.8zm0 3.36a.84.84 0 0 0-.84.84V10a.84.84 0 0 0 .246.594l2.52 2.52a.84.84 0 0 0 1.188-1.188L10.84 9.652V5.8a.84.84 0 0 0-.84-.84z"/>
</symbol><symbol id="icon-user" viewBox="0 0 26 25">
    <path d="M12.946 21.36H4.69a.834.834 0 0 1-.656-.313.857.857 0 0 1-.174-.718c.852-4.092 4.463-7.08 8.632-7.177a5.584 5.584 0 0 0 5.787-5.574A5.585 5.585 0 0 0 12.7 2a5.584 5.584 0 0 0-5.578 5.578c0 1.826.881 3.45 2.241 4.468a10.66 10.66 0 0 0-7.11 7.948A2.491 2.491 0 0 0 4.69 23h8.257a.82.82 0 1 0 0-1.64zM8.763 7.577A3.942 3.942 0 0 1 12.7 3.641a3.942 3.942 0 0 1 3.938 3.937 3.942 3.942 0 0 1-3.845 3.936.82.82 0 0 0-.093-.005c-.064 0-.128 0-.192.002a3.942 3.942 0 0 1-3.745-3.933zM23.2 18.898a.82.82 0 0 1-.82.82h-6.153a.82.82 0 1 1 0-1.64h6.153a.82.82 0 0 1 .82.82zm-6.973-4.101h6.153a.82.82 0 1 1 0 1.64h-6.153a.82.82 0 1 1 0-1.64zM23.2 22.18a.82.82 0 0 1-.82.82h-6.153a.82.82 0 1 1 0-1.64h6.153a.82.82 0 0 1 .82.82z"/>
</symbol><symbol id="icon-vermouth" viewBox="0 0 25 25">
    <path d="M20.1 5.5H11C11 3.57 9.43 2 7.5 2S4 3.57 4 5.5a3.505 3.505 0 0 0 2.8 3.429V9c0 1.05.764 2.18 1.74 2.57l.9.36c.632.253 1.573.874 2.055 1.355L13.1 14.89v6.71h-2.8a.7.7 0 1 0 0 1.4h7a.7.7 0 1 0 0-1.4h-2.8v-6.71l1.605-1.605c.482-.482 1.423-1.102 2.055-1.355l.9-.36c.976-.39 1.74-1.52 1.74-2.57V6.2a.7.7 0 0 0-.7-.7zm-.7 1.4v.7H8.2v-.7h11.2zm-14-1.4c0-1.158.942-2.1 2.1-2.1 1.158 0 2.1.942 2.1 2.1H7.5a.7.7 0 0 0-.7.7v1.27A2.095 2.095 0 0 1 5.4 5.5zm13.14 4.77l-.9.36c-.803.322-1.912 1.053-2.525 1.665L13.8 13.61l-1.315-1.315c-.613-.612-1.72-1.343-2.525-1.665l-.9-.36c-.45-.18-.86-.786-.86-1.27h11.2c0 .484-.41 1.09-.86 1.27z"/>
</symbol><symbol id="icon-vodka" viewBox="0 0 25 25">
    <path fill-rule="evenodd" clip-rule="evenodd" d="M5.777 15.193c0 .997.834 1.806 1.863 1.806s1.862-.809 1.862-1.806c0-.998-.833-1.806-1.862-1.806-1.029 0-1.863.808-1.863 1.806zm1.863.887c-.505 0-.915-.397-.915-.887s.41-.887.915-.887c.505 0 .915.397.915.887s-.41.887-.915.887z"/>
    <path fill-rule="evenodd" clip-rule="evenodd" d="M12.28 22.194c0 .998-.834 1.806-1.863 1.806H4.863C3.833 24 3 23.192 3 22.194v-9.367a4.43 4.43 0 0 1 1.36-3.181l.744-.722c.432-.418.674-.986.674-1.578V1.46c0-.254.213-.46.474-.46H9.03c.261 0 .473.206.473.46v5.886a2.2 2.2 0 0 0 .675 1.578l.744.722a4.5 4.5 0 0 1 1.006 1.46c.233.545.353 1.13.353 1.72v9.368zm-8.332-3.45v3.45c0 .49.41.887.915.887h5.554c.505 0 .915-.397.915-.887v-3.45l-3.43 2.217a.486.486 0 0 1-.525 0l-3.429-2.217zm7.384-1.104L7.64 20.026 3.948 17.64v-3.673l.001-.002a6.026 6.026 0 0 1 .924-1.138c.655-.627 1.583-1.214 2.767-1.214s2.112.587 2.766 1.214a6.019 6.019 0 0 1 .924 1.138l.002.002v3.673zm-.026-5.231a3.494 3.494 0 0 0-.255-.952 3.574 3.574 0 0 0-.8-1.162l-.744-.72a3.104 3.104 0 0 1-.952-2.23V5.959h-1.83v1.388a3.1 3.1 0 0 1-.952 2.228l-.744.722a3.538 3.538 0 0 0-1.056 2.113 6.52 6.52 0 0 1 .203-.206l.031-.03c.75-.72 1.905-1.479 3.433-1.479 1.528 0 2.682.76 3.433 1.48.082.078.16.157.233.235zm-4.58-7.37h1.829V1.92h-1.83v3.12zm8.314 15.875c0 .007.002.013.003.02l.461 2.682a.47.47 0 0 0 .468.384h4.165a.47.47 0 0 0 .468-.384l.462-2.686.002-.012.925-5.38a.45.45 0 0 0-.106-.373.48.48 0 0 0-.362-.162h-6.943a.487.487 0 0 0-.362.162.45.45 0 0 0-.106.373l.925 5.376zm1.333 2.167h3.363l.305-1.774h-3.973l.305 1.774zm-.463-2.693h4.29l.767-4.466h-5.824l.768 4.466z"/>
</symbol><symbol id="icon-whiskey" viewBox="0 0 25 25">
    <path d="M21.906 4.124A.37.37 0 0 0 21.629 4H3.37a.371.371 0 0 0-.369.413l1.991 17.355A1.39 1.39 0 0 0 6.375 23h12.25c.707 0 1.301-.53 1.382-1.232l.67-5.85a.371.371 0 0 0-.737-.085l-.67 5.85a.648.648 0 0 1-.645.575H6.375a.648.648 0 0 1-.644-.575L3.787 4.743H4.83l1.39 12.115a2.894 2.894 0 0 0 2.876 2.565h6.81a2.894 2.894 0 0 0 2.877-2.565l1.39-12.116h1.04l-.891 7.776a.371.371 0 0 0 .737.084l.94-8.189a.372.372 0 0 0-.092-.289zM9.095 18.681a2.152 2.152 0 0 1-2.14-1.908l-.612-5.346c.095-.074.83-.628 1.939-1.012.066.133.153.255.259.36l1.548 1.55a1.351 1.351 0 0 0-.513-.1c-.362 0-.702.14-.958.396l-.697.697a1.356 1.356 0 0 0 0 1.916l.697.697c.256.256.596.397.958.397.207 0 .412-.047.598-.139v1.88c0 .212.05.422.147.612H9.095zm3.993-4.428l.198.198h-1.67a1.353 1.353 0 0 0-.385-1.133l-.489-.489a1.359 1.359 0 0 0 1.473-.295l1.663-1.663a8.5 8.5 0 0 0 .566.11l-1.356 1.356a1.356 1.356 0 0 0 0 1.916zM9.065 10.25a.603.603 0 0 1-.043-.049c1.017-.232 2.244-.263 3.538.257.164.065.33.126.498.182l-1.368 1.37a.613.613 0 0 1-.866 0l-1.759-1.758zm4.524-.22a8.358 8.358 0 0 1-.753-.261 6.614 6.614 0 0 0-3.82-.329.623.623 0 0 1 .05-.056l1.758-1.759a.61.61 0 0 1 .866 0l1.758 1.759a.61.61 0 0 1 .141.646zm-2.883 4.678l-.697.697a.608.608 0 0 1-.866 0l-.698-.697a.613.613 0 0 1 0-.866l.698-.697a.608.608 0 0 1 .667-.133c.075.03.142.076.199.133l.697.697a.613.613 0 0 1 0 .866zm3.697 3.36a.613.613 0 0 1-.612.612h-2.262a.613.613 0 0 1-.613-.613v-2.262c0-.338.275-.612.613-.612h2.262c.127 0 .245.038.343.105l.164.165c.069.1.105.22.105.342v2.263zm.219-3.331l-1.01-1.01a.613.613 0 0 1 0-.866l1.597-1.596a.609.609 0 0 1 .866 0l1.597 1.596a.613.613 0 0 1 0 .866l-1.597 1.597a.608.608 0 0 1-.667.133.609.609 0 0 1-.199-.133l-.35-.35a1.366 1.366 0 0 0-.237-.237zm3.422 2.035a2.152 2.152 0 0 1-2.14 1.908H15c.096-.19.147-.4.146-.613v-1.916a1.352 1.352 0 0 0 1.455-.303l1.596-1.596c.06-.059.112-.123.16-.191l-.312 2.71zm.456-3.971a1.345 1.345 0 0 0-.304-.464l-1.329-1.33a7.596 7.596 0 0 0 1.896-.506l-.263 2.3zm.363-3.166a.387.387 0 0 0-.033.017c-.007.003-.67.372-1.74.568a7.483 7.483 0 0 1-1.408.124h-.062a7.484 7.484 0 0 1-1.307-.137 1.363 1.363 0 0 0-.34-1.348l-1.758-1.758a1.356 1.356 0 0 0-1.916 0L8.54 8.86a1.344 1.344 0 0 0-.388.812 8.304 8.304 0 0 0-1.905.915l-.671-5.845h13.848l-.561 4.894z"/>
    <path d="M20.546 13.815a.37.37 0 0 0-.412.327l-.004.04a.371.371 0 0 0 .737.084l.005-.04a.371.371 0 0 0-.326-.41zm-8.757 6.958H9.576a.371.371 0 1 0 0 .742h2.213a.371.371 0 0 0 0-.742zm1.566 0h-.007a.371.371 0 1 0 0 .742h.007a.371.371 0 0 0 0-.742z"/>
</symbol><symbol id="icon-wine" viewBox="0 0 25 25">
    <path d="M18.227 9.186L17.176 2.53a.628.628 0 0 0-.62-.53H8.444a.628.628 0 0 0-.62.53L6.772 9.186a5.79 5.79 0 0 0 1.32 4.67 5.789 5.789 0 0 0 3.779 1.998v5.89H9.104a.628.628 0 0 0 0 1.256h6.792a.628.628 0 1 0 0-1.256h-2.768v-5.89a5.788 5.788 0 0 0 3.78-1.998 5.79 5.79 0 0 0 1.319-4.67zM8.98 3.256h7.037l.542 3.431H8.44l.541-3.43zm6.971 9.784a4.535 4.535 0 0 1-3.452 1.591 4.535 4.535 0 0 1-4.37-3.307 4.535 4.535 0 0 1-.116-1.942l.227-1.438h8.518l.227 1.438a4.534 4.534 0 0 1-1.034 3.658z"/>
</symbol><symbol id="icon-winter" viewBox="0 0 35 35">
    <g clip-path="url(#a)">
        <path d="M17.5 35c.755 0 1.367-.612 1.367-1.367V29.53l1.533 1.533a1.367 1.367 0 0 0 1.934-1.933l-3.467-3.467v-5.797l5.019 2.896 1.27 4.738a1.367 1.367 0 0 0 2.64-.707l-.561-2.099 3.561 2.055a1.367 1.367 0 0 0 1.367-2.368l-3.556-2.052 2.09-.56a1.367 1.367 0 0 0-.708-2.64l-4.732 1.267-5.022-2.897 5.022-2.897 4.732 1.268a1.367 1.367 0 1 0 .708-2.642l-2.09-.56 3.556-2.051a1.367 1.367 0 0 0-1.367-2.369l-3.561 2.056.562-2.099a1.367 1.367 0 0 0-2.641-.708l-1.27 4.739-5.019 2.896V9.336l3.467-3.467A1.367 1.367 0 0 0 20.4 3.936l-1.533 1.533V1.367a1.367 1.367 0 0 0-2.734 0V5.47L14.6 3.936a1.367 1.367 0 1 0-1.934 1.933l3.467 3.467v5.797l-5.02-2.896-1.269-4.739a1.367 1.367 0 0 0-2.641.708l.562 2.098L4.204 8.25a1.367 1.367 0 1 0-1.367 2.369l3.556 2.051-2.09.56a1.367 1.367 0 1 0 .708 2.642l4.732-1.268 5.021 2.897-5.02 2.897L5.01 19.13a1.367 1.367 0 0 0-.708 2.641l2.09.56-3.556 2.052a1.367 1.367 0 0 0 1.367 2.368l3.561-2.055-.562 2.099a1.367 1.367 0 1 0 2.641.707l1.27-4.738 5.019-2.896v5.797l-3.467 3.467a1.367 1.367 0 1 0 1.934 1.933l1.533-1.533v4.102c0 .755.612 1.367 1.367 1.367z"/>
    </g>
    
</symbol></svg>